<?xml version="1.0" encoding="UTF-8"?>
<svg version="1.1" xmlns="http://www.w3.org/2000/svg" width="461" height="614" style="background: transparent;">
<path d="M0 0 C152.13 0 304.26 0 461 0 C461 202.62 461 405.24 461 614 C308.87 614 156.74 614 0 614 C0 411.38 0 208.76 0 0 Z " fill="#131212" transform="translate(0,0)"/>
<path d="M0 0 C9.17687629 7.7103903 17.56057624 16.00593485 23.875 26.25 C24.53113281 27.28511719 25.18726563 28.32023437 25.86328125 29.38671875 C36.12798877 46.08804155 40.30591335 63.36773465 40.25 82.875 C40.24945618 83.58687469 40.24891235 84.29874939 40.24835205 85.03219604 C40.21105288 95.63485753 39.60714841 105.22419758 35.875 115.25 C35.66069336 115.86504395 35.44638672 116.48008789 35.22558594 117.11376953 C25.95160265 143.67353971 8.01942157 164.59984415 -16.96875 177.74609375 C-19.65740256 179.01529591 -22.35958783 180.15828983 -25.125 181.25 C-26.23746094 181.69214844 -27.34992188 182.13429688 -28.49609375 182.58984375 C-40.88667688 187.27193705 -52.62450284 188.64353334 -65.875 188.625 C-66.53452667 188.62445618 -67.19405334 188.62391235 -67.87356567 188.62335205 C-78.28698483 188.58393058 -87.32525785 187.81958933 -97.125 184.25 C-97.74826172 184.03569336 -98.37152344 183.82138672 -99.01367188 183.60058594 C-125.74571367 174.35339928 -147.58723556 154.74950399 -160.10351562 129.51611328 C-170.23010653 108.15430143 -173.22204244 84.42103775 -168.125 61.25 C-167.88007813 60.07566406 -167.63515625 58.90132813 -167.3828125 57.69140625 C-160.96624583 30.40680194 -143.02349954 8.58404608 -120.09375 -6.78125 C-82.68938103 -29.7065084 -34.73419712 -26.62955113 0 0 Z " fill="#FEF8EE" transform="translate(368.125,82.75)"/>
<path d="M0 0 C67.98 0 135.96 0 206 0 C206 202.62 206 405.24 206 614 C204.68 614 203.36 614 202 614 C202 596.84 202 579.68 202 562 C64.06 562 -73.88 562 -216 562 C-216 556.72 -216 551.44 -216 546 C-78.06 546 59.88 546 202 546 C202 540.06 202 534.12 202 528 C64.06 528 -73.88 528 -216 528 C-216 522.06 -216 516.12 -216 510 C-78.06 510 59.88 510 202 510 C201.8453125 434.8528125 201.8453125 434.8528125 201.6875 358.1875 C201.66260498 342.38512451 201.63770996 326.58274902 201.61206055 310.30151367 C201.57548431 296.10202243 201.57548431 296.10202243 201.5349884 281.90254211 C201.51709517 275.59170092 201.50720896 269.28091071 201.50288391 262.970047 C201.49785852 255.67829032 201.48240797 248.38664123 201.45451616 241.0949349 C201.44058963 237.37110882 201.43105342 233.64743233 201.43496072 229.92357862 C201.44772762 214.68780404 201.09693005 199.95900823 198 185 C197.84960372 184.26141388 197.69920745 183.52282777 197.54425371 182.76186025 C190.31015179 147.29731123 174.39407377 114.31487853 152 86 C151.5673584 85.45021484 151.1347168 84.90042969 150.68896484 84.33398438 C147.13061455 79.83244 143.55530448 75.44012114 139.4375 71.4375 C138.633125 70.633125 137.82875 69.82875 137 69 C137 68.34 137 67.68 137 67 C136.1646875 66.66548828 136.1646875 66.66548828 135.3125 66.32421875 C132.29127848 64.59416116 130.37033371 62.36543209 128 59.8125 C96.90529658 27.73253982 50.82298826 7.77143716 7 2 C5.62345192 1.80511514 4.24711921 1.60869756 2.87109375 1.41015625 C1.92363281 1.27480469 0.97617188 1.13945312 0 1 C0 0.67 0 0.34 0 0 Z " fill="#FAFAFA" transform="translate(255,0)"/>
<path d="M0 0 C68.64 0 137.28 0 208 0 C208 0.33 208 0.66 208 1 C206.94425781 1.08636719 205.88851562 1.17273438 204.80078125 1.26171875 C151.73234089 6.09275162 96.34735479 33.46042793 61.88671875 74.6796875 C61.26410156 75.44539063 60.64148437 76.21109375 60 77 C59.58314941 77.49918945 59.16629883 77.99837891 58.73681641 78.51269531 C39.4352352 101.63165563 24.6375811 127.41466062 15 156 C14.75846191 156.69899414 14.51692383 157.39798828 14.26806641 158.11816406 C8.3055224 175.62809755 3.90119399 195.71724699 3.8613348 214.21760464 C3.85849258 214.91284964 3.85565036 215.60809464 3.85272202 216.32440767 C3.84441931 218.64730913 3.84311031 220.97016043 3.84178162 223.29307556 C3.83721325 224.97791189 3.83221282 226.66274709 3.82681805 228.34758097 C3.81325883 232.9722036 3.805825 237.59681889 3.79939139 242.22145617 C3.79137771 247.21048187 3.77768326 252.19949235 3.76467896 257.18850708 C3.74292995 265.83061686 3.72477969 274.4727282 3.70907402 283.114851 C3.68636105 295.60990898 3.65822019 308.1049501 3.62875474 320.59999377 C3.58109634 340.87240051 3.5378274 361.14481415 3.49731445 381.41723633 C3.45795062 401.10995012 3.41652226 420.80265779 3.37231445 440.49536133 C3.36959018 441.70922946 3.36686591 442.9230976 3.36405908 444.17374962 C3.35037946 450.26337225 3.33665921 456.3529948 3.32291877 462.4426173 C3.20898152 512.96173208 3.10216607 563.48086014 3 614 C2.01 614 1.02 614 0 614 C0 411.38 0 208.76 0 0 Z " fill="#FEFEFE" transform="translate(0,0)"/>
<path d="M0 0 C49.61557849 -0.11398099 99.23114041 -0.20250595 148.84682409 -0.25532665 C154.69996628 -0.26158043 160.5531082 -0.26805202 166.40625 -0.2746582 C168.15418578 -0.27662553 168.15418578 -0.27662553 169.93743339 -0.2786326 C188.8234952 -0.30040897 207.70948117 -0.33984276 226.59549794 -0.38576398 C245.96392506 -0.43246657 265.33231238 -0.46028226 284.7007935 -0.47044247 C296.65914112 -0.4773145 308.61727441 -0.49904492 320.57555607 -0.53958233 C328.76779906 -0.56594422 336.95993071 -0.5740159 345.15221307 -0.56750689 C349.88387838 -0.56429376 354.6151683 -0.56933385 359.34676743 -0.59602737 C363.67469953 -0.62026621 368.00200199 -0.62164912 372.3299624 -0.60449447 C373.8993494 -0.60237271 375.46877486 -0.60879488 377.03808555 -0.62441591 C379.16518085 -0.64436568 381.28997724 -0.63374587 383.41703415 -0.61523914 C384.6002427 -0.61713775 385.78345125 -0.61903635 387.0025146 -0.62099248 C390.91583967 0.18973555 391.81331732 1.75605158 394 5 C395.2065625 5.9590625 395.2065625 5.9590625 396.4375 6.9375 C398.54822854 8.63637907 400.00760727 10.11233839 401.6875 12.1875 C403.69390251 15.01647233 403.69390251 15.01647233 406 16 C406 16.66 406 17.32 406 18 C272.02 18 138.04 18 0 18 C0 12.06 0 6.12 0 0 Z " fill="#F9F9F9" transform="translate(39,474)"/>
<path d="M0 0 C44.57003601 -0.36532305 89.13987363 -0.64831889 133.71111387 -0.81704527 C138.97798463 -0.8370556 144.24485242 -0.85776485 149.51171875 -0.87890625 C150.56021818 -0.88310322 151.60871762 -0.88730018 152.68898976 -0.89162433 C169.64680871 -0.96116884 186.60375621 -1.08727768 203.56105888 -1.23444474 C220.97231281 -1.38428661 238.38311165 -1.47298566 255.79498386 -1.50541592 C266.53204049 -1.52732663 277.26663381 -1.59641443 288.00293171 -1.72666347 C295.37414036 -1.81151078 302.74408343 -1.83674258 310.11574447 -1.81602204 C314.36437244 -1.80581204 318.60871091 -1.82098596 322.85656738 -1.9072876 C350.93906129 -2.45067779 350.93906129 -2.45067779 360.02471256 5.75327396 C368 14.2086171 368 14.2086171 368 18 C246.56 18 125.12 18 0 18 C0 12.06 0 6.12 0 0 Z " fill="#F9F9F9" transform="translate(39,437)"/>
<path d="M0 0 C40.17138888 -0.11400979 80.34275238 -0.20252084 120.51427076 -0.25532665 C125.25454992 -0.26158034 129.99482875 -0.26805194 134.73510742 -0.2746582 C136.1506915 -0.27662553 136.1506915 -0.27662553 137.59487323 -0.2786326 C152.88488029 -0.30040201 168.17479356 -0.33983198 183.46474495 -0.38576398 C199.14820535 -0.43248593 214.83161655 -0.46028637 230.51514369 -0.47044247 C240.19640367 -0.47731049 249.87739858 -0.49901909 259.55857698 -0.53958233 C266.19312996 -0.56596812 272.82754547 -0.57401047 279.46214714 -0.56750689 C283.29272754 -0.56429746 287.12284407 -0.56929141 290.95334244 -0.59602737 C295.10324892 -0.62478179 299.25216234 -0.61496656 303.40214539 -0.60127258 C305.22460857 -0.62311889 305.22460857 -0.62311889 307.08388919 -0.64540654 C316.14165962 -0.56422204 316.14165962 -0.56422204 319.18304157 2.43523884 C319.78263785 3.28161002 320.38223413 4.1279812 321 5 C322.03590981 6.01621283 323.07337784 7.03084298 324.11328125 8.04296875 C325.17973223 9.09110033 326.24613804 10.13927786 327.3125 11.1875 C327.86228516 11.72052734 328.41207031 12.25355469 328.97851562 12.80273438 C330.35715678 14.16424956 331.68339727 15.57840502 333 17 C333 17.66 333 18.32 333 19 C223.11 19 113.22 19 0 19 C0 12.73 0 6.46 0 0 Z " fill="#F3F3F3" transform="translate(39,400)"/>
<path d="M0 0 C35.55110044 -0.18249158 71.10210578 -0.32407231 106.65357837 -0.40852264 C110.85051461 -0.41852832 115.04744992 -0.42888289 119.24438477 -0.43945312 C120.49768871 -0.44260085 120.49768871 -0.44260085 121.77631193 -0.44581217 C135.30616723 -0.48062504 148.83575066 -0.54370268 162.36544467 -0.61722237 C176.24766385 -0.69202864 190.12974062 -0.73646891 204.01215309 -0.75270796 C212.5788731 -0.76368643 221.1448247 -0.79836175 229.71130817 -0.86333174 C235.58530149 -0.90561259 241.45889745 -0.91840266 247.3330319 -0.90801102 C250.7229962 -0.90288481 254.11053527 -0.91511697 257.50044632 -0.9536438 C261.17748457 -0.99338963 264.85122265 -0.98390412 268.52833557 -0.96203613 C270.13194902 -0.99699023 270.13194902 -0.99699023 271.7679587 -1.03265047 C278.86683312 -0.9183525 278.86683312 -0.9183525 282.16075122 1.75113773 C283.92041126 3.75900172 285.45293497 5.82729238 287 8 C288.77960255 9.66096238 290.5876581 11.29263904 292.4375 12.875 C293.99548257 14.20776005 295.52820847 15.57262874 297 17 C297 17.66 297 18.32 297 19 C198.99 19 100.98 19 0 19 C0 12.73 0 6.46 0 0 Z " fill="#F3F3F3" transform="translate(39,364)"/>
<path d="M0 0 C30.87162746 -0.11300517 61.74318064 -0.2025335 92.61496503 -0.25532665 C96.25869123 -0.26158027 99.90241701 -0.26805187 103.54614258 -0.2746582 C104.63425433 -0.27662553 104.63425433 -0.27662553 105.74434815 -0.2786326 C117.49394704 -0.30039609 129.24342377 -0.33982276 140.99295016 -0.38576398 C153.04680896 -0.43250248 165.10060372 -0.46028986 177.15454942 -0.47044247 C183.92606193 -0.47669073 190.69731954 -0.49173306 197.46874046 -0.52865028 C203.83890078 -0.56252196 210.20866901 -0.5730706 216.57891083 -0.56553841 C218.91987804 -0.56691689 221.26085802 -0.57690138 223.60174751 -0.59602737 C226.7928197 -0.62082646 229.98240258 -0.61495223 233.17350769 -0.60127258 C234.10444392 -0.61583679 235.03538015 -0.630401 235.99452657 -0.64540654 C240.52653255 -0.59272539 242.37143114 -0.50813507 246.00409412 2.42850971 C246.99206753 3.7013974 246.99206753 3.7013974 248 5 C249.10982252 6.09982134 250.22039552 7.19888639 251.33203125 8.296875 C252.4922184 9.44788552 253.65237423 10.59892761 254.8125 11.75 C255.40998047 12.33910156 256.00746094 12.92820312 256.62304688 13.53515625 C258.10096908 15.00463318 259.55301451 16.50005018 261 18 C261 18.33 261 18.66 261 19 C174.87 19 88.74 19 0 19 C0 12.73 0 6.46 0 0 Z " fill="#F3F3F3" transform="translate(39,327)"/>
<path d="M0 0 C26.76461383 -0.30128932 53.52881745 -0.53310731 80.29478741 -0.67355824 C92.72356176 -0.74051393 105.15126135 -0.83175049 117.5793457 -0.98071289 C128.41524724 -1.11052925 139.25037027 -1.19421323 150.08702785 -1.22315043 C155.82231708 -1.24005955 161.55537975 -1.27962204 167.28995323 -1.37449074 C172.69562577 -1.46318803 178.09817019 -1.48986355 183.50450134 -1.47039986 C185.48104718 -1.47395655 187.45770493 -1.49955661 189.43361855 -1.54967117 C198.5324794 -1.76899072 205.90257229 -1.91708744 212.88572866 4.50974017 C216.95513949 8.73024617 219.97179971 12.95299951 223 18 C149.41 18 75.82 18 0 18 C0 12.06 0 6.12 0 0 Z " fill="#F9F9F9" transform="translate(39,291)"/>
<path d="M0 0 C22.04424175 -0.16207418 44.08833988 -0.28697782 66.13305759 -0.3626852 C76.36894074 -0.39877262 86.60444679 -0.44796836 96.84008789 -0.52807617 C105.76198721 -0.59786885 114.68361343 -0.64301286 123.60577816 -0.65861946 C128.32972361 -0.6677418 133.0528878 -0.68916408 137.77658272 -0.7401104 C142.22467915 -0.78769474 146.67167406 -0.80226695 151.12000084 -0.79175377 C152.75064205 -0.79367644 154.38132083 -0.80756042 156.01174164 -0.83443832 C168.34328589 -1.02772151 168.34328589 -1.02772151 172.48071098 1.53887749 C174.22566811 3.26962733 175.60144152 4.98749913 177 7 C179.07017406 8.81696269 181.17450449 10.57390449 183.30078125 12.32421875 C185 14 185 14 187 18 C125.29 18 63.58 18 0 18 C0 12.06 0 6.12 0 0 Z " fill="#F8F8F8" transform="translate(39,255)"/>
<path d="M0 0 C17.35041316 -0.18532041 34.70043011 -0.32802058 52.05160618 -0.41449738 C60.10839628 -0.45572043 68.16455955 -0.51190405 76.22094727 -0.60351562 C83.24429067 -0.68334196 90.26718008 -0.73488624 97.29096454 -0.75270796 C101.00909352 -0.76312362 104.72592392 -0.78753583 108.44363594 -0.84584045 C112.59785261 -0.91046017 116.74982324 -0.91191382 120.90454102 -0.90820312 C122.13237305 -0.93696533 123.36020508 -0.96572754 124.62524414 -0.99536133 C132.80970394 -0.91620773 132.80970394 -0.91620773 136.27911186 1.75430298 C138.04270324 3.75544961 139.52731132 5.78038589 141 8 C142.41809053 9.49778487 143.85109213 10.98194948 145.3125 12.4375 C145.96863281 13.09621094 146.62476563 13.75492188 147.30078125 14.43359375 C148.9295024 16.08034104 148.9295024 16.08034104 151 17 C151 17.66 151 18.32 151 19 C101.17 19 51.34 19 0 19 C0 12.73 0 6.46 0 0 Z " fill="#F1F1F1" transform="translate(39,218)"/>
<path d="M0 0 C12.47446325 -0.2037173 24.94781341 -0.3686654 37.42356682 -0.46630955 C43.21725369 -0.51318551 49.00973899 -0.57671672 54.80273438 -0.67895508 C60.39846644 -0.7770886 65.99304644 -0.83062973 71.58957291 -0.85389519 C73.71946466 -0.87046407 75.84929667 -0.90282105 77.97869492 -0.95157051 C96.75315696 -1.36410374 96.75315696 -1.36410374 103.09814453 4.27368164 C104.43882184 5.81517516 105.74160683 7.39063225 107 9 C108.5242564 10.51768855 110.06379259 12.02034885 111.625 13.5 C112.77328981 14.64375112 113.90705281 15.80325335 115 17 C115 17.33 115 17.66 115 18 C77.05 18 39.1 18 0 18 C0 12.06 0 6.12 0 0 Z " fill="#F8F8F8" transform="translate(39,182)"/>
<path d="M0 0 C7.7112011 -0.34134301 15.41815203 -0.61539 23.13486671 -0.77718258 C26.720082 -0.85491732 30.29979186 -0.95991846 33.88183594 -1.1315918 C58.9150086 -2.30075844 58.9150086 -2.30075844 66.01464844 3.30029297 C69.61800535 6.81553061 72.43133287 10.68816798 75 15 C75.99 16.485 75.99 16.485 77 18 C51.59 18 26.18 18 0 18 C0 12.06 0 6.12 0 0 Z " fill="#FAFAFA" transform="translate(39,145)"/>
<path d="M0 0 C20.04008029 -2.23772609 20.04008029 -2.23772609 26.57666016 1.45605469 C30.9023307 4.9531695 34.45592494 9.06071691 37.77685547 13.50952148 C38.94899185 15.14437679 38.94899185 15.14437679 41 16 C41 16.66 41 17.32 41 18 C27.47 18 13.94 18 0 18 C0 12.06 0 6.12 0 0 Z " fill="#F5F5F5" transform="translate(39,109)"/>
</svg>