<?xml version="1.0" encoding="UTF-8"?>
<svg version="1.1" xmlns="http://www.w3.org/2000/svg" width="361" height="615">
<path d="M0 0 C4.11597138 1.89826201 7.94307275 4.20893977 11.8125 6.5625 C12.96307591 7.24696759 14.11462579 7.92980032 15.26708984 8.61108398 C17.66020237 10.02744243 20.04898085 11.4507313 22.43505859 12.87890625 C27.95818058 16.17609101 33.54551935 19.36200166 39.125 22.5625 C48.42386668 27.92099194 57.69938124 33.31858808 66.96582031 38.73291016 C78.61659185 45.53587623 90.30903744 52.26642186 102 59 C142.28298371 82.20156421 142.28298371 82.20156421 149.02648926 86.33444214 C151.95344928 88.07150111 151.95344928 88.07150111 155.12167358 89.17555237 C158.7916256 90.73061527 161.20404532 92.13625732 164 95 C166.19657993 100.97389367 165.39090257 107.81453573 165.171875 114.05859375 C165.14947533 115.93183444 165.13240233 117.80514575 165.12042236 119.67848206 C165.07473941 124.59427179 164.95700672 129.5057627 164.82397461 134.41986084 C164.70090757 139.44012283 164.64634721 144.46108421 164.5859375 149.48242188 C164.45748443 159.32349703 164.25286381 169.16139025 164 179 C160.25699053 177.53936237 156.85584073 175.87461972 153.37109375 173.8671875 C152.26813965 173.23417725 151.16518555 172.60116699 150.02880859 171.94897461 C148.83168395 171.25768746 147.6345817 170.56636151 146.4375 169.875 C145.18590429 169.1553417 143.93411037 168.43602802 142.68212891 167.71704102 C140.08047011 166.22264909 137.47967136 164.7267756 134.87939453 163.22998047 C131.20395837 161.11561111 127.52308703 159.01089031 123.83984375 156.91015625 C122.97378258 156.41617592 122.97378258 156.41617592 122.09022522 155.91221619 C121.51509689 155.5841951 120.93996857 155.25617401 120.34741211 154.91821289 C106.94640694 147.27409034 93.57589862 139.57768177 80.21777344 131.85888672 C74.81329355 128.73675395 69.40652588 125.61858796 64 122.5 C61.8333225 121.25001878 59.66665583 120.00001879 57.5 118.75 C56.4275 118.13125 55.355 117.5125 54.25 116.875 C44.5 111.25 44.5 111.25 41.24462891 109.37158203 C39.09623488 108.13233534 36.94747675 106.89371964 34.79833984 105.65576172 C29.71226083 102.72502368 24.63019771 99.78788584 19.56085205 96.82830811 C17.1618043 95.42821831 14.7606759 94.03171905 12.359375 92.63549805 C10.66201774 91.64656763 8.96769098 90.65244162 7.2734375 89.65820312 C6.24734375 89.06201172 5.22125 88.46582031 4.1640625 87.8515625 C2.80982178 87.05999756 2.80982178 87.05999756 1.42822266 86.25244141 C-1.6498872 84.63665011 -1.6498872 84.63665011 -5 84 C-7.53990002 85.00695551 -7.53990002 85.00695551 -10.1640625 86.65625 C-11.19015625 87.25888672 -12.21625 87.86152344 -13.2734375 88.48242188 C-14.37945312 89.14822266 -15.48546875 89.81402344 -16.625 90.5 C-17.79089389 91.18945949 -18.95757467 91.87758991 -20.125 92.56445312 C-22.55159229 93.99355391 -24.9746851 95.42833662 -27.39550781 96.8671875 C-32.89914818 100.13199017 -38.45187319 103.31161605 -44 106.5 C-46.15255246 107.7418258 -48.30489519 108.98401521 -50.45703125 110.2265625 C-54.93155169 112.80824969 -59.40840857 115.38583014 -63.88671875 117.9609375 C-65.02560547 118.61642578 -66.16449219 119.27191406 -67.33789062 119.94726562 C-69.47787488 121.1788484 -71.61844226 122.40941886 -73.75976562 123.63867188 C-75.71847055 124.76648831 -77.6605021 125.92392199 -79.5819397 127.11412048 C-82.15949186 128.5362583 -84.1001264 129.40481352 -86.83126831 130.26210022 C-91.44006821 131.94025658 -95.14994805 133.8980013 -98 138 C-100.73958877 146.90845055 -99.92530603 156.7370549 -99.72283816 165.97104383 C-99.65688345 169.70261598 -99.67637469 173.433755 -99.6865387 177.16575623 C-99.69290592 184.22154071 -99.62319369 191.27440902 -99.5256682 198.3294391 C-99.41831768 206.36571907 -99.39649538 214.40153357 -99.3816117 222.43843377 C-99.34911101 238.9602839 -99.21000254 255.47943191 -99 272 C-98.23121017 272.29993362 -97.46242035 272.59986725 -96.67033386 272.90888977 C-93.71959273 274.11457565 -91.06405674 275.57887551 -88.30078125 277.16796875 C-87.18735352 277.80621582 -86.07392578 278.44446289 -84.92675781 279.10205078 C-83.72195086 279.79710633 -82.51719971 280.4922586 -81.3125 281.1875 C-80.05711328 281.90894749 -78.80157708 282.63013494 -77.54589844 283.35107422 C-74.31879708 285.2050294 -71.09403586 287.06301465 -67.86993408 288.92218018 C-66.09079075 289.94766871 -64.31095951 290.97194872 -62.53076172 291.99560547 C-55.0134543 296.31825095 -47.50339978 300.6532585 -40 305 C-38.9260498 305.62213379 -37.85209961 306.24426758 -36.74560547 306.88525391 C-25.41370541 313.45622345 -14.08978876 320.02556254 -3 327 C-5.77737346 329.98885268 -8.43928991 332.01050908 -12.015625 333.9609375 C-13.00755859 334.50782227 -13.99949219 335.05470703 -15.02148438 335.61816406 C-16.08689453 336.19791992 -17.15230469 336.77767578 -18.25 337.375 C-20.51662146 338.62580014 -22.782221 339.87845366 -25.046875 341.1328125 C-25.62453613 341.45221802 -26.20219727 341.77162354 -26.79736328 342.10070801 C-32.74838073 345.39848747 -38.62859125 348.81308936 -44.5 352.25 C-45.4895166 352.82613037 -46.4790332 353.40226074 -47.49853516 353.99584961 C-52.05682235 356.65693864 -56.5884495 359.34861393 -61.0703125 362.13671875 C-61.84568359 362.61270508 -62.62105469 363.08869141 -63.41992188 363.57910156 C-64.83907013 364.45334214 -66.25005783 365.34104505 -67.65039062 366.24511719 C-70.56339483 368.0299724 -72.42556293 369.04424363 -75.88134766 368.77807617 C-79.13838486 367.9654742 -81.47599739 366.85357684 -84.359375 365.1484375 C-85.37918457 364.55216553 -86.39899414 363.95589355 -87.44970703 363.34155273 C-88.53880371 362.69259033 -89.62790039 362.04362793 -90.75 361.375 C-91.90551279 360.69571783 -93.06161137 360.01743127 -94.21826172 359.34008789 C-96.62074891 357.93218406 -99.02066241 356.52003309 -101.41894531 355.10498047 C-106.96272117 351.83943018 -112.54653543 348.64328127 -118.125 345.4375 C-127.56622994 339.99737022 -136.98661665 334.52236208 -146.38330078 329.00561523 C-152.01377395 325.70895145 -157.67941445 322.4803926 -163.36865234 319.28662109 C-164.10516525 318.87276657 -164.84167816 318.45891205 -165.60050964 318.03251648 C-167.40015097 317.02134158 -169.20004909 316.01062373 -171 315 C-171.39728071 286.48886783 -171.69697795 257.97815088 -171.88080692 229.46480751 C-171.96843531 216.2251084 -172.08787551 202.98712979 -172.2824707 189.74853516 C-172.45201925 178.20839014 -172.56161211 166.66949099 -172.59950441 155.12813509 C-172.62165393 149.01732211 -172.67361323 142.91007285 -172.79741096 136.80040359 C-172.91307402 131.04541159 -172.9483536 125.29543828 -172.92283058 119.53939438 C-172.9274967 117.43086673 -172.96118164 115.32216645 -173.02649307 113.21464539 C-173.4834584 97.70429157 -173.4834584 97.70429157 -169.33443332 93.18632841 C-165.25756747 89.99218675 -160.80948951 87.84111104 -156.04118526 85.87456012 C-153.23124359 84.67062093 -150.67255585 83.1260805 -148.07421875 81.5234375 C-136.82511847 74.94300101 -125.53659945 68.43502899 -114.21401978 61.98214722 C-105.08881534 56.78047024 -95.99948658 51.52019759 -86.93310547 46.21655273 C-76.4193497 40.068295 -65.86670394 33.98802071 -55.31298828 27.90869141 C-50.83617931 25.3294952 -46.36038549 22.7485442 -41.88549805 20.16601562 C-39.69150967 18.90097847 -37.49638084 17.63791692 -35.30004883 16.37695312 C-30.30012875 13.50302248 -25.32121208 10.60484379 -20.390625 7.61328125 C-19.52751709 7.09540039 -18.66440918 6.57751953 -17.77514648 6.04394531 C-16.19139069 5.09121108 -14.61467831 4.12661526 -13.04711914 3.14746094 C-8.52571267 0.44367132 -5.37962947 -1.00585509 0 0 Z " fill="#4310A9" transform="translate(185,0)"/>
<path d="M0 0 C0.50398345 36.72225687 0.89142283 73.44399133 1.12343725 110.1690091 C1.15095152 114.50843034 1.17942673 118.84784477 1.20849609 123.18725586 C1.21426692 124.05112411 1.22003775 124.91499236 1.22598346 125.80503843 C1.32161528 139.77794746 1.49501337 153.74885742 1.69736151 167.72058197 C1.90338322 182.06602728 2.02535066 196.41042869 2.06994689 210.75729257 C2.1000815 219.60557967 2.19507346 228.44821735 2.37416227 237.29476378 C2.49082295 243.36837102 2.52552873 249.43907635 2.4970303 255.51372155 C2.48297977 259.01683318 2.50383175 262.51011773 2.62252045 266.01145935 C3.21410578 286.46936711 3.21410578 286.46936711 -2.16747236 292.38092637 C-7.45074901 296.55001678 -13.21736988 299.3623552 -19.41801524 301.90857184 C-22.79655996 303.33671305 -25.79890528 305.10568197 -28.921875 307.0234375 C-30.8638955 308.14182025 -32.80659457 309.25902558 -34.75 310.375 C-36.9505276 311.64191533 -39.15104823 312.90884277 -41.3515625 314.17578125 C-42.44887695 314.80693848 -43.54619141 315.4380957 -44.67675781 316.08837891 C-50.16132887 319.24325632 -55.64363073 322.40206348 -61.125 325.5625 C-62.20233398 326.18366699 -63.27966797 326.80483398 -64.38964844 327.44482422 C-71.60541094 331.60893408 -78.80679761 335.79705709 -86 340 C-97.5297273 346.73674715 -109.09385221 353.41290104 -120.66503906 360.078125 C-125.23444896 362.71138962 -129.80167749 365.34842106 -134.3684082 367.98632812 C-136.59488706 369.27100208 -138.82255992 370.55360926 -141.05151367 371.83398438 C-145.55770708 374.42342371 -150.05653657 377.01632183 -154.49609375 379.71875 C-155.13643555 380.10297119 -155.77677734 380.48719238 -156.43652344 380.88305664 C-158.02033864 381.83683493 -159.59474593 382.8061931 -161.16796875 383.77734375 C-164.7151716 385.30875684 -167.15182732 385.26203908 -171 385 C-173.89233398 383.84521484 -173.89233398 383.84521484 -176.74609375 382.2109375 C-177.81819092 381.60628662 -178.89028809 381.00163574 -179.99487305 380.37866211 C-181.13093994 379.71745361 -182.26700684 379.05624512 -183.4375 378.375 C-184.64100555 377.68834588 -185.84520014 377.00289814 -187.05004883 376.31860352 C-190.12410534 374.56711066 -193.18702336 372.79716112 -196.24584961 371.01922607 C-197.90135838 370.05731442 -199.5590114 369.09909587 -201.21679688 368.14111328 C-207.17827581 364.69540901 -213.12196735 361.22030043 -219.05712891 357.72949219 C-223.9904339 354.83024442 -228.93251162 351.94605635 -233.875 349.0625 C-234.86153564 348.48677246 -235.84807129 347.91104492 -236.86450195 347.31787109 C-247.46120263 341.13911204 -258.08863185 335.01383978 -268.71777344 328.89111328 C-275.21934599 325.14511648 -281.71839431 321.3947381 -288.21655273 317.64282227 C-293.22723556 314.75036587 -298.2394688 311.86073806 -303.25863647 308.98303223 C-305.01728749 307.97451686 -306.77533209 306.9649523 -308.53320312 305.95507812 C-310.72472231 304.69649482 -312.91734504 303.43983013 -315.11132812 302.18554688 C-316.11486328 301.60869141 -317.11839844 301.03183594 -318.15234375 300.4375 C-319.4515979 299.69306641 -319.4515979 299.69306641 -320.77709961 298.93359375 C-321.84065674 298.29550781 -322.90421387 297.65742187 -324 297 C-325.37387123 296.45405434 -325.37387123 296.45405434 -326.77549744 295.89707947 C-330.24653517 294.26566282 -332.44485328 292.88114408 -335 290 C-336.57471298 283.64965922 -336.28328417 277.4432857 -336.07421875 270.94140625 C-336.05368562 269.06815671 -336.03803543 267.19484783 -336.02705383 265.32151794 C-335.98518051 260.40604693 -335.87725495 255.49418872 -335.75531006 250.58013916 C-335.64249648 245.55978271 -335.59248409 240.53883849 -335.53710938 235.51757812 C-335.41936432 225.67680351 -335.23179402 215.83870288 -335 206 C-317.93633592 215.29451225 -300.99143852 224.78083616 -284.22924805 234.60961914 C-276.55733863 239.10436753 -268.84950466 243.53397907 -261.125 247.9375 C-248.80234834 254.96400179 -236.50861259 262.03942703 -224.2265625 269.13671875 C-220.96475993 271.0203505 -217.70138156 272.90122321 -214.4375 274.78125 C-213.35186768 275.40684814 -212.26623535 276.03244629 -211.14770508 276.67700195 C-208.9838865 277.9236391 -206.81966782 279.16958206 -204.6550293 280.41479492 C-199.15305143 283.58458112 -193.66845972 286.78031215 -188.20703125 290.01953125 C-187.11213379 290.66656006 -186.01723633 291.31358887 -184.88916016 291.98022461 C-182.80577113 293.21319565 -180.72581649 294.45199465 -178.64990234 295.69750977 C-177.71742676 296.24850342 -176.78495117 296.79949707 -175.82421875 297.3671875 C-175.01041748 297.85300293 -174.19661621 298.33881836 -173.3581543 298.83935547 C-170.77567013 300.11041145 -168.8792166 300.80981067 -166 301 C-163.32695868 299.99532599 -163.32695868 299.99532599 -160.66796875 298.30859375 C-159.63478516 297.70080078 -158.60160156 297.09300781 -157.53710938 296.46679688 C-155.87905273 295.46229492 -155.87905273 295.46229492 -154.1875 294.4375 C-153.02103941 293.74529838 -151.85370719 293.05456366 -150.68554688 292.36523438 C-148.28399029 290.94565636 -145.88706136 289.51871985 -143.49365234 288.08544922 C-138.35543207 285.01191161 -133.17572146 282.00978513 -128 279 C-126.03248531 277.85037469 -124.06503805 276.70063397 -122.09765625 275.55078125 C-114.46138351 271.09597764 -106.79557495 266.69249213 -99.13085938 262.28686523 C-92.427326 258.42578152 -85.75870115 254.51580128 -79.18530273 250.4362793 C-75.21132765 248 -75.21132765 248 -73 248 C-73 179.69 -73 111.38 -73 41 C-65.74 37.04 -58.48 33.08 -51 29 C-44.91645838 25.44353938 -44.91645838 25.44353938 -38.8515625 21.85546875 C-31.13598944 17.28583879 -23.32282472 12.88180246 -15.53076172 8.44433594 C-14.93897125 8.10710007 -14.34718079 7.7698642 -13.73745728 7.42240906 C-12.11471413 6.49786164 -10.49145575 5.57421873 -8.86816406 4.65063477 C-6.96030916 3.55266005 -5.06606658 2.43067665 -3.18652344 1.28491211 C-1 0 -1 0 0 0 Z " fill="#410FA4" transform="translate(349,230)"/>
<path d="M0 0 C4.11597138 1.89826201 7.94307275 4.20893977 11.8125 6.5625 C12.96307591 7.24696759 14.11462579 7.92980032 15.26708984 8.61108398 C17.66020237 10.02744243 20.04898085 11.4507313 22.43505859 12.87890625 C27.95818058 16.17609101 33.54551935 19.36200166 39.125 22.5625 C48.42386668 27.92099194 57.69938124 33.31858808 66.96582031 38.73291016 C77.51600309 44.89323484 88.1007623 50.99323865 98.68701172 57.09130859 C104.27171084 60.30878669 109.85465015 63.5293145 115.4375 66.75 C117.0447998 67.6771582 117.0447998 67.6771582 118.68457031 68.62304688 C128.128856 74.07200802 137.56618533 79.53293391 147 85 C146.67 85.99 146.34 86.98 146 88 C144.01432292 87.47916667 142.02864583 86.95833333 140.04296875 86.4375 C137.85929991 85.8952993 137.85929991 85.8952993 135 86 C134.67 84.02 134.34 82.04 134 80 C130.98968256 79.06576355 130.13349732 78.95550089 127 80 C126.67 78.35 126.34 76.7 126 75 C124.35 75.66 122.7 76.32 121 77 C120.67 76.34 120.34 75.68 120 75 C119.01 74.67 118.02 74.34 117 74 C117 73.01 117 72.02 117 71 C115.68 71.33 114.36 71.66 113 72 C112.835 71.236875 112.67 70.47375 112.5 69.6875 C110.53978669 66.17545115 108.71177287 65.84974397 104.97265625 64.7734375 C102.73128541 63.8946426 101.57806698 62.79078447 100 61 C100.33 61.99 100.66 62.98 101 64 C99.68 64 98.36 64 97 64 C96.79375 63.071875 96.5875 62.14375 96.375 61.1875 C95.25763365 57.77797904 95.25763365 57.77797904 92.0625 56.125 C89.07443108 54.82759127 89.07443108 54.82759127 86 55 C84 53 84 53 83 51 C82.01 51.33 81.02 51.66 80 52 C79.01 50.02 79.01 50.02 78 48 C75.03 48 72.06 48 69 48 C68.67 47.01 68.34 46.02 68 45 C64.88214887 45.64644661 64.88214887 45.64644661 64 48 C62.90341064 44.71023192 63.20046862 43.28696233 64 40 C60.37114676 39.84850702 60.37114676 39.84850702 57 41 C57.33 39.35 57.66 37.7 58 36 C55.03 35.01 55.03 35.01 52 34 C52 33.34 52 32.68 52 32 C51.39671875 32.02320313 50.7934375 32.04640625 50.171875 32.0703125 C49.37265625 32.08835938 48.5734375 32.10640625 47.75 32.125 C46.96109375 32.14820313 46.1721875 32.17140625 45.359375 32.1953125 C42.79268059 31.9828378 41.2083933 31.28654105 39 30 C39 28.68 39 27.36 39 26 C38.01 25.67 37.02 25.34 36 25 C35.01 24.67 34.02 24.34 33 24 C33 23.34 33 22.68 33 22 C31.68 22 30.36 22 29 22 C29 21.01 29 20.02 29 19 C28.34 19 27.68 19 27 19 C27.33 19.99 27.66 20.98 28 22 C26.02 22.495 26.02 22.495 24 23 C23.67 21.02 23.34 19.04 23 17 C22.01 16.67 21.02 16.34 20 16 C20 15.34 20 14.68 20 14 C18.948125 14.185625 17.89625 14.37125 16.8125 14.5625 C13.41886977 14.95193298 11.2319237 14.9505658 8 14 C7 13 7 13 6.9375 10.4375 C6.958125 9.633125 6.97875 8.82875 7 8 C5.84371094 7.90912109 5.84371094 7.90912109 4.6640625 7.81640625 C3.66117188 7.73261719 2.65828125 7.64882812 1.625 7.5625 C0.62726563 7.48128906 -0.37046875 7.40007813 -1.3984375 7.31640625 C-4 7 -4 7 -6 6 C-6.66 6.66 -7.32 7.32 -8 8 C-9.175625 7.690625 -9.175625 7.690625 -10.375 7.375 C-11.24125 7.25125 -12.1075 7.1275 -13 7 C-15.2085766 8.87508162 -15.2085766 8.87508162 -17 11 C-17.66 11 -18.32 11 -19 11 C-19 11.66 -19 12.32 -19 13 C-18.34 13 -17.68 13 -17 13 C-17.33 13.66 -17.66 14.32 -18 15 C-18.825 14.7525 -19.65 14.505 -20.5 14.25 C-25.22506862 13.9124951 -28.16458045 15.2992254 -32 18 C-33.3893931 19.54149521 -33.3893931 19.54149521 -34.5625 21.1875 C-37.66673814 24.76931324 -39.39108336 24.59570907 -44 25 C-47.35205607 26.17464201 -47.35205607 26.17464201 -50 28 C-50.96044102 30.07690578 -50.96044102 30.07690578 -51 32 C-52.98 32 -54.96 32 -57 32 C-57.391875 33.134375 -57.78375 34.26875 -58.1875 35.4375 C-60 39 -60 39 -62.6875 39.9375 C-63.450625 39.958125 -64.21375 39.97875 -65 40 C-65 39.34 -65 38.68 -65 38 C-67.31 38.99 -69.62 39.98 -72 41 C-72 41.99 -72 42.98 -72 44 C-73.5 46.1875 -73.5 46.1875 -75 48 C-75.66 47.34 -76.32 46.68 -77 46 C-77.99 46.99 -77.99 46.99 -79 48 C-79 47.34 -79 46.68 -79 46 C-82.89648316 46.57725676 -85.1697945 48.31875268 -88 51 C-88.33 51.886875 -88.66 52.77375 -89 53.6875 C-89.33 54.450625 -89.66 55.21375 -90 56 C-92.4375 56.6875 -92.4375 56.6875 -95 57 C-95.99 57.66 -96.98 58.32 -98 59 C-98.33 58.67 -98.66 58.34 -99 58 C-99.99 58.99 -99.99 58.99 -101 60 C-101 60.99 -101 61.98 -101 63 C-104 63 -104 63 -105.875 62.1875 C-106.926875 62.0946875 -106.926875 62.0946875 -108 62 C-110.56249975 64.31232422 -110.56249975 64.31232422 -113 67 C-115.3125 68.3125 -115.3125 68.3125 -117 69 C-117 69.66 -117 70.32 -117 71 C-121.75 72.125 -121.75 72.125 -124 71 C-125.98 72.32 -127.96 73.64 -130 75 C-129.67 76.32 -129.34 77.64 -129 79 C-130.5778125 78.938125 -130.5778125 78.938125 -132.1875 78.875 C-138.61785852 79.08583143 -143.95114561 82.09120951 -149 86 C-149 86.66 -149 87.32 -149 88 C-150.65 88 -152.3 88 -154 88 C-154 88.66 -154 89.32 -154 90 C-153.34 90.33 -152.68 90.66 -152 91 C-152.33 92.32 -152.66 93.64 -153 95 C-155.475 95.495 -155.475 95.495 -158 96 C-158.66 95.01 -159.32 94.02 -160 93 C-163.46017038 94.24950597 -166.34436729 95.42098296 -169 98 C-169.6193667 100.83784139 -169.6193667 100.83784139 -169.54589844 104.1237793 C-169.56561707 105.38486008 -169.58533569 106.64594086 -169.60565186 107.94523621 C-169.60731501 109.32156328 -169.60854588 110.69789093 -169.609375 112.07421875 C-169.62435466 113.48242601 -169.64108137 114.89061568 -169.65948486 116.29878235 C-169.70319575 120.00266317 -169.72316536 123.70630701 -169.73822021 127.41040039 C-169.75777815 131.19106074 -169.79974948 134.97146465 -169.83984375 138.75195312 C-169.91518607 146.16789987 -169.96545272 153.58373913 -170 161 C-170.33 161 -170.66 161 -171 161 C-171.39557235 152.56840461 -171.69670349 144.14073262 -171.88080692 135.70212746 C-171.96922406 131.78227838 -172.08881717 127.86880983 -172.2824707 123.95263672 C-173.49537825 98.76453709 -173.49537825 98.76453709 -169.45883179 92.67498779 C-165.57129145 89.08271697 -161.12381132 87.30301788 -156.13137817 85.7210083 C-153.17922631 84.72234648 -150.69910863 83.1859852 -148.07421875 81.5234375 C-136.82511847 74.94300101 -125.53659945 68.43502899 -114.21401978 61.98214722 C-105.08881534 56.78047024 -95.99948658 51.52019759 -86.93310547 46.21655273 C-76.4193497 40.068295 -65.86670394 33.98802071 -55.31298828 27.90869141 C-50.83617931 25.3294952 -46.36038549 22.7485442 -41.88549805 20.16601562 C-39.69150967 18.90097847 -37.49638084 17.63791692 -35.30004883 16.37695312 C-30.30012875 13.50302248 -25.32121208 10.60484379 -20.390625 7.61328125 C-19.52751709 7.09540039 -18.66440918 6.57751953 -17.77514648 6.04394531 C-16.19139069 5.09121108 -14.61467831 4.12661526 -13.04711914 3.14746094 C-8.52571267 0.44367132 -5.37962947 -1.00585509 0 0 Z M120 77 C121.485 77.99 121.485 77.99 123 79 C122.01 79.33 121.02 79.66 120 80 C120 79.01 120 78.02 120 77 Z " fill="#3A1C79" transform="translate(185,0)"/>
<path d="M0 0 C0.33 0 0.66 0 1 0 C1.17898289 8.72894081 1.34428642 17.45811381 1.5 26.1875 C1.51187725 26.85294704 1.5237545 27.51839409 1.53599167 28.2040062 C1.95490689 51.90751052 2.08894763 75.60550498 2.0625 99.3125 C2.06121597 100.47180841 2.06121597 100.47180841 2.05990601 101.6545372 C2.04865117 111.1030491 2.02878186 120.55152396 2 130 C2.76878983 130.29993362 3.53757965 130.59986725 4.32966614 130.90888977 C7.28040727 132.11457565 9.93594326 133.57887551 12.69921875 135.16796875 C13.81264648 135.80621582 14.92607422 136.44446289 16.07324219 137.10205078 C17.27804914 137.79710633 18.48280029 138.4922586 19.6875 139.1875 C20.94288672 139.90894749 22.19842292 140.63013494 23.45410156 141.35107422 C26.68120292 143.2050294 29.90596414 145.06301465 33.13006592 146.92218018 C34.90920925 147.94766871 36.68904049 148.97194872 38.46923828 149.99560547 C45.9865457 154.31825095 53.49660022 158.6532585 61 163 C62.0739502 163.62213379 63.14790039 164.24426758 64.25439453 164.88525391 C75.58629459 171.45622345 86.91021124 178.02556254 98 185 C95.22262654 187.98885268 92.56071009 190.01050908 88.984375 191.9609375 C87.99244141 192.50782227 87.00050781 193.05470703 85.97851562 193.61816406 C84.91310547 194.19791992 83.84769531 194.77767578 82.75 195.375 C80.48337854 196.62580014 78.217779 197.87845366 75.953125 199.1328125 C75.37546387 199.45221802 74.79780273 199.77162354 74.20263672 200.10070801 C68.25161927 203.39848747 62.37140875 206.81308936 56.5 210.25 C55.5104834 210.82613037 54.5209668 211.40226074 53.50146484 211.99584961 C48.94317765 214.65693864 44.4115505 217.34861393 39.9296875 220.13671875 C39.15431641 220.61270508 38.37894531 221.08869141 37.58007812 221.57910156 C36.16092987 222.45334214 34.74994217 223.34104505 33.34960938 224.24511719 C30.43660517 226.0299724 28.57443707 227.04424363 25.11865234 226.77807617 C21.86161514 225.9654742 19.52400261 224.85357684 16.640625 223.1484375 C15.62081543 222.55216553 14.60100586 221.95589355 13.55029297 221.34155273 C11.91664795 220.36810913 11.91664795 220.36810913 10.25 219.375 C9.09448721 218.69571783 7.93838863 218.01743127 6.78173828 217.34008789 C4.37925109 215.93218406 1.97933759 214.52003309 -0.41894531 213.10498047 C-5.96272519 209.83942781 -11.54672327 206.64361497 -17.125 203.4375 C-21.41802368 200.96068017 -25.70897785 198.48028534 -30 196 C-31.7030127 195.01676758 -31.7030127 195.01676758 -33.44042969 194.01367188 C-36.79561499 192.07503614 -40.14816778 190.13192608 -43.5 188.1875 C-45.04131592 187.29792603 -45.04131592 187.29792603 -46.61376953 186.39038086 C-47.55591309 185.84260986 -48.49805664 185.29483887 -49.46875 184.73046875 C-50.29826172 184.24989014 -51.12777344 183.76931152 -51.98242188 183.27416992 C-54 182 -54 182 -56 180 C-54.02 180 -52.04 180 -50 180 C-49.505 179.01 -49.505 179.01 -49 178 C-48.01 178.33 -47.02 178.66 -46 179 C-46 179.66 -46 180.32 -46 181 C-45.01 181.33 -44.02 181.66 -43 182 C-43 182.99 -43 183.98 -43 185 C-41.02 185.99 -39.04 186.98 -37 188 C-36.67 187.34 -36.34 186.68 -36 186 C-36 186.66 -36 187.32 -36 188 C-33.69 187.67 -31.38 187.34 -29 187 C-28.01 190.465 -28.01 190.465 -27 194 C-24.57418066 194.80860645 -23.15796615 195.03325603 -20.625 194.5 C-17.50353897 193.90543599 -15.08845478 194.35357923 -12 195 C-12.226875 195.721875 -12.45375 196.44375 -12.6875 197.1875 C-13.19415792 199.98689933 -13.19415792 199.98689933 -12.1875 202.5 C-8.84391584 206.32123904 -4.57026949 207.94229573 0 210 C1.33647365 210.6603487 2.67101152 211.32471351 4 212 C4.66 211.34 5.32 210.68 6 210 C8.625 210.375 8.625 210.375 11 211 C11.495 214.465 11.495 214.465 12 218 C15.37817425 218.84454356 17.67465243 219.10844919 21 218 C22.32 219.65 23.64 221.3 25 223 C26.65 222.34 28.3 221.68 30 221 C29.34 220.34 28.68 219.68 28 219 C30.3125 218.375 30.3125 218.375 33 218 C34.485 218.99 34.485 218.99 36 220 C36.0825 218.906875 36.165 217.81375 36.25 216.6875 C37 213 37 213 39.0625 211.0625 C39.701875 210.711875 40.34125 210.36125 41 210 C41 210.66 41 211.32 41 212 C47.62389441 209.46832871 47.62389441 209.46832871 53 205 C52.67 204.34 52.34 203.68 52 203 C52.66 203 53.32 203 54 203 C54.33 202.34 54.66 201.68 55 201 C55.66 201.66 56.32 202.32 57 203 C56.67 203.33 56.34 203.66 56 204 C57.65 204 59.3 204 61 204 C61 203.34 61 202.68 61 202 C62.98 201.67 64.96 201.34 67 201 C67.33 200.01 67.66 199.02 68 198 C69.32 198 70.64 198 72 198 C72 197.01 72 196.02 72 195 C75 194 75 194 78 194 C80.01151741 193.36893571 82.01363702 192.70626239 84 192 C84 189.03 84 186.06 84 183 C84.66 183 85.32 183 86 183 C86 182.01 86 181.02 86 180 C84.68 180 83.36 180 82 180 C81.67 179.34 81.34 178.68 81 178 C78.67843403 177.59270772 76.3431213 177.25561323 74 177 C74 175.68 74 174.36 74 173 C73.401875 172.87625 72.80375 172.7525 72.1875 172.625 C70 172 70 172 67 170 C64.25028676 169.01795956 62.42121953 169.03046213 59.4375 169.1875 C56 169 56 169 54 167.25 C53 165 53 165 53.3125 162.75 C53.539375 162.1725 53.76625 161.595 54 161 C53.071875 161 52.14375 161 51.1875 161 C49.125 161 47.0625 161 45 161 C45 160.67 45 160.34 45 160 C43.35 160 41.7 160 40 160 C40 158 40 158 42 156 C38.20458337 153.78600697 34.24370579 152.99019802 30 152 C30 151.01 30 150.02 30 149 C29.34 149 28.68 149 28 149 C28 148.01 28 147.02 28 146 C27.39671875 146.01160156 26.7934375 146.02320313 26.171875 146.03515625 C25.37265625 146.04417969 24.5734375 146.05320312 23.75 146.0625 C22.56664063 146.07990234 22.56664063 146.07990234 21.359375 146.09765625 C19.09308998 146.00385306 17.1711105 145.63241063 15 145 C15 144.34 15 143.68 15 143 C14.34 143 13.68 143 13 143 C12.505 140.525 12.505 140.525 12 138 C9.36 138 6.72 138 4 138 C4.33 136.68 4.66 135.36 5 134 C4.19175781 133.47664062 3.38351563 132.95328125 2.55078125 132.4140625 C-0.72335519 129.31541576 -0.68177078 127.81979348 -0.8125 123.375 C-0.83763672 122.72402344 -0.86277344 122.07304687 -0.88867188 121.40234375 C-1.08371409 115.50649607 -1.02867444 109.59959759 -0.98168945 103.70141602 C-0.95436758 98.87987811 -1.13798421 94.12429322 -1.5 89.3125 C-2.13818679 80.81549875 -2.73966715 72.09560801 -1.51147461 63.63452148 C-0.73140462 57.55132499 -0.76552672 51.4370077 -0.68359375 45.3125 C-0.66281265 44.01425293 -0.64203156 42.71600586 -0.62062073 41.37841797 C-0.56583066 37.95250367 -0.51623439 34.52653379 -0.46777344 31.1005249 C-0.41724076 27.59431094 -0.36172174 24.08817618 -0.30664062 20.58203125 C-0.19958713 13.721423 -0.0980284 6.86074298 0 0 Z " fill="#612AD8" transform="translate(84,142)"/>
<path d="M0 0 C0.598125 0.20625 1.19625 0.4125 1.8125 0.625 C0.8225 0.625 -0.1675 0.625 -1.1875 0.625 C-1.5175 1.615 -1.8475 2.605 -2.1875 3.625 C-3.71240025 5.51297173 -4.59405974 6.50221926 -7 7 C-10.49111874 7.9974625 -12.59930068 10.15183176 -15.1875 12.625 C-16.13186349 14.79031168 -16.13186349 14.79031168 -16.1875 16.625 C-17.79625 16.439375 -17.79625 16.439375 -19.4375 16.25 C-20.675 16.37375 -21.9125 16.4975 -23.1875 16.625 C-25.36696646 19.47751385 -25.36696646 19.47751385 -27.1875 22.625 C-31.14950251 24.98078527 -34.67430764 24.625 -39.1875 24.625 C-41.72656247 27.16406247 -41.43582701 28.78510534 -41.47183573 32.24865115 C-41.469901 33.04046986 -41.46796626 33.83228858 -41.4659729 34.64810181 C-41.4717653 35.48693889 -41.4775577 36.32577597 -41.48352563 37.19003236 C-41.50060811 40.01686326 -41.50340919 42.84353171 -41.50634766 45.67041016 C-41.51564015 47.69038802 -41.52580779 49.71036203 -41.53678894 51.73033142 C-41.56417956 57.22796332 -41.57926511 62.72556948 -41.59221697 68.22325182 C-41.607808 73.96351114 -41.63461096 79.70371755 -41.6602478 85.44393921 C-41.70710714 96.32009633 -41.74381655 107.19626333 -41.77692068 118.07247007 C-41.81509161 130.45199916 -41.86451487 142.83147522 -41.91490483 155.21095967 C-42.01833107 180.68226718 -42.1075566 206.15360873 -42.1875 231.625 C-43.5075 231.295 -44.8275 230.965 -46.1875 230.625 C-45.5275 230.625 -44.8675 230.625 -44.1875 230.625 C-44.1875 162.315 -44.1875 94.005 -44.1875 23.625 C-36.9275 19.665 -29.6675 15.705 -22.1875 11.625 C-1.67279412 -0.28676471 -1.67279412 -0.28676471 0 0 Z " fill="#6B44CA" transform="translate(320.1875,247.375)"/>
<path d="M0 0 C0.33 0 0.66 0 1 0 C1.50398345 36.72225687 1.89142283 73.44399133 2.12343725 110.1690091 C2.15095152 114.50843034 2.17942673 118.84784477 2.20849609 123.18725586 C2.21715234 124.48305823 2.21715234 124.48305823 2.22598346 125.80503843 C2.32161528 139.77794746 2.49501337 153.74885742 2.69736151 167.72058197 C2.90338322 182.06602728 3.02535066 196.41042869 3.06994689 210.75729257 C3.1000815 219.60557967 3.19507346 228.44821735 3.37416227 237.29476378 C3.49082295 243.36837102 3.52552873 249.43907635 3.4970303 255.51372155 C3.48297977 259.01683318 3.50383175 262.51011773 3.62252045 266.01145935 C4.2148241 286.49420741 4.2148241 286.49420741 -1.19844007 292.39741731 C-6.47894698 296.54589773 -12.23129839 299.43585214 -18.45247591 301.91193849 C-21.09793565 302.9631898 -21.09793565 302.9631898 -23.70081103 304.69680852 C-24.45954339 305.12686171 -25.21827575 305.5569149 -26 306 C-26.66 305.67 -27.32 305.34 -28 305 C-27.67 303.02 -27.34 301.04 -27 299 C-26.01 299 -25.02 299 -24 299 C-24 299.66 -24 300.32 -24 301 C-23.13375 300.566875 -22.2675 300.13375 -21.375 299.6875 C-19.19109422 298.59554711 -16.98300345 297.55017461 -14.75 296.5625 C-11.89782853 295.28561316 -11.89782853 295.28561316 -11 292.9375 C-9.48048102 289.99343198 -7.04104394 289.97054594 -4 289 C-3.67 288.01 -3.34 287.02 -3 286 C-2.34 286 -1.68 286 -1 286 C-1.33 285.01 -1.66 284.02 -2 283 C-2.06189525 280.70354064 -2.05796808 278.40516176 -2.02172852 276.1081543 C-2.0121238 275.40117338 -2.00251909 274.69419247 -1.99262333 273.96578789 C-1.97088217 272.41182081 -1.94674421 270.85788592 -1.9205513 269.3039875 C-1.87796432 266.76813102 -1.84178541 264.23225167 -1.80722046 261.6962738 C-1.75626586 257.98964045 -1.70295159 254.28305207 -1.6479187 250.57647705 C-1.49884401 240.4275273 -1.37498629 230.27826929 -1.2578125 220.12890625 C-1.24553305 219.06602135 -1.23325359 218.00313644 -1.22060204 216.90804291 C-0.94256008 192.31365658 -0.91558396 167.72069153 -0.9375 143.125 C-0.93906664 141.00179038 -0.94061287 138.87858074 -0.94213867 136.75537109 C-0.95282332 122.92203432 -0.97260389 109.08871641 -0.99479675 95.25539398 C-1.01922886 79.9695293 -1.04172188 64.68366942 -1.05341816 49.397789 C-1.058365 43.31901395 -1.06815408 37.2402728 -1.08184814 31.16151142 C-1.08926018 27.44783332 -1.09261162 23.73415989 -1.0948143 20.02047539 C-1.09669459 18.29860595 -1.10031178 16.57673745 -1.10574722 14.85487556 C-1.11289681 12.51935778 -1.11400415 10.18391543 -1.11352539 7.84838867 C-1.115746 6.54165695 -1.11796661 5.23492523 -1.12025452 3.88859558 C-1 1 -1 1 0 0 Z " fill="#3A1982" transform="translate(348,230)"/>
<path d="M0 0 C1.32 0.33 2.64 0.66 4 1 C4 1.66 4 2.32 4 3 C4.99 3.33 5.98 3.66 7 4 C7 4.99 7 5.98 7 7 C8.98 7.99 10.96 8.98 13 10 C13.33 9.34 13.66 8.68 14 8 C14 8.66 14 9.32 14 10 C17.465 9.505 17.465 9.505 21 9 C21.66 11.31 22.32 13.62 23 16 C25.42581934 16.80860645 26.84203385 17.03325603 29.375 16.5 C32.49646103 15.90543599 34.91154522 16.35357923 38 17 C37.773125 17.721875 37.54625 18.44375 37.3125 19.1875 C36.80584208 21.98689933 36.80584208 21.98689933 37.8125 24.5 C41.15608416 28.32123904 45.42973051 29.94229573 50 32 C51.33647365 32.6603487 52.67101152 33.32471351 54 34 C54.66 33.34 55.32 32.68 56 32 C58.625 32.375 58.625 32.375 61 33 C61.495 36.465 61.495 36.465 62 40 C65.37817425 40.84454356 67.67465243 41.10844919 71 40 C72.32 41.65 73.64 43.3 75 45 C76.65 44.34 78.3 43.68 80 43 C79.34 42.34 78.68 41.68 78 41 C81.28696233 40.20046862 82.71023192 39.90341064 86 41 C87.33106622 41.34227417 88.66400079 41.67751743 90 42 C88.13818673 43.20806978 86.25988465 44.39075297 84.375 45.5625 C83.33085938 46.22378906 82.28671875 46.88507813 81.2109375 47.56640625 C77.39176239 49.27156108 75.99990072 48.97987909 72 48 C69.34472656 46.74755859 69.34472656 46.74755859 66.640625 45.1484375 C65.62081543 44.55216553 64.60100586 43.95589355 63.55029297 43.34155273 C62.46119629 42.69259033 61.37209961 42.04362793 60.25 41.375 C59.09448721 40.69571783 57.93838863 40.01743127 56.78173828 39.34008789 C54.37925109 37.93218406 51.97933759 36.52003309 49.58105469 35.10498047 C44.03727481 31.83942781 38.45327673 28.64361497 32.875 25.4375 C28.58197632 22.96068017 24.29102215 20.48028534 20 18 C18.8646582 17.34451172 17.72931641 16.68902344 16.55957031 16.01367188 C13.20438501 14.07503614 9.85183222 12.13192608 6.5 10.1875 C5.47245605 9.59445068 4.44491211 9.00140137 3.38623047 8.39038086 C2.44408691 7.84260986 1.50194336 7.29483887 0.53125 6.73046875 C-0.71301758 6.00960083 -0.71301758 6.00960083 -1.98242188 5.27416992 C-4 4 -4 4 -6 2 C-4.02 2 -2.04 2 0 2 C0 1.34 0 0.68 0 0 Z " fill="#592AC4" transform="translate(34,320)"/>
<path d="M0 0 C4.27935134 1.2905604 7.86375454 2.92597598 11.68359375 5.23828125 C13.30430786 6.21112061 13.30430786 6.21112061 14.95776367 7.20361328 C15.52449799 7.54716858 16.0912323 7.89072388 16.67514038 8.24468994 C19.69748237 10.07592072 22.7317846 11.88712266 25.765625 13.69921875 C26.37891159 14.06599731 26.99219818 14.43277588 27.62406921 14.81066895 C33.26079608 18.17355566 38.96135422 21.41685806 44.6875 24.625 C53.42921165 29.52964309 62.10645256 34.53436687 70.7565918 39.59863281 C78.65391219 44.22076056 86.5720218 48.80574197 94.5 53.375 C95.08141754 53.71013611 95.66283508 54.04527222 96.26187134 54.39056396 C99.5074513 56.26118027 102.75350445 58.13097323 106 60 C105.67 60.99 105.34 61.98 105 63 C103.01432292 62.47916667 101.02864583 61.95833333 99.04296875 61.4375 C96.85929991 60.8952993 96.85929991 60.8952993 94 61 C93.505 58.03 93.505 58.03 93 55 C89.98968256 54.06576355 89.13349732 53.95550089 86 55 C85.67 53.35 85.34 51.7 85 50 C83.35 50.66 81.7 51.32 80 52 C79.67 51.34 79.34 50.68 79 50 C77.515 49.505 77.515 49.505 76 49 C76 48.01 76 47.02 76 46 C74.68 46.33 73.36 46.66 72 47 C71.835 46.236875 71.67 45.47375 71.5 44.6875 C69.53978669 41.17545115 67.71177287 40.84974397 63.97265625 39.7734375 C61.73128541 38.8946426 60.57806698 37.79078447 59 36 C59.33 36.99 59.66 37.98 60 39 C58.68 39 57.36 39 56 39 C55.79375 38.071875 55.5875 37.14375 55.375 36.1875 C54.25763365 32.77797904 54.25763365 32.77797904 51.0625 31.125 C48.07443108 29.82759127 48.07443108 29.82759127 45 30 C43 28 43 28 42 26 C41.01 26.33 40.02 26.66 39 27 C38.34 25.68 37.68 24.36 37 23 C34.03 23 31.06 23 28 23 C27.67 22.01 27.34 21.02 27 20 C23.88214887 20.64644661 23.88214887 20.64644661 23 23 C21.90341064 19.71023192 22.20046862 18.28696233 23 15 C19.37114676 14.84850702 19.37114676 14.84850702 16 16 C16.33 14.35 16.66 12.7 17 11 C15.02 10.34 13.04 9.68 11 9 C11 8.34 11 7.68 11 7 C10.319375 6.731875 9.63875 6.46375 8.9375 6.1875 C5.60289191 4.83946694 2.30256763 3.42463702 -1 2 C-0.67 1.34 -0.34 0.68 0 0 Z M79 52 C80.485 52.99 80.485 52.99 82 54 C81.01 54.33 80.02 54.66 79 55 C79 54.01 79 53.02 79 52 Z " fill="#40257E" transform="translate(226,25)"/>
<path d="M0 0 C2.125 0.375 2.125 0.375 4 1 C4 1.66 4 2.32 4 3 C4.99 3 5.98 3 7 3 C8.5625 4.4375 8.5625 4.4375 10 6 C10.66 6.33 11.32 6.66 12 7 C11.67 6.01 11.34 5.02 11 4 C12.65 3.34 14.3 2.68 16 2 C15.67 2.99 15.34 3.98 15 5 C15.99 5.33 16.98 5.66 18 6 C18.66 6.66 19.32 7.32 20 8 C20.515625 8.45375 21.03125 8.9075 21.5625 9.375 C23 11 23 11 23.25 13 C23.90292604 15.45227463 23.90292604 15.45227463 27.5 16.625 C28.655 17.07875 29.81 17.5325 31 18 C31.495 18.99 31.495 18.99 32 20 C33.98 19.34 35.96 18.68 38 18 C38 18.99 38 19.98 38 21 C41.76737643 23.96823597 45.29761275 24.53898164 50 25 C50 25.99 50 26.98 50 28 C50.99 27.67 51.98 27.34 53 27 C53.495 28.98 53.495 28.98 54 31 C55.11375 31.2475 56.2275 31.495 57.375 31.75 C59.169375 32.36875 59.169375 32.36875 61 33 C61.29390625 33.62648438 61.5878125 34.25296875 61.890625 34.8984375 C63.45612766 37.86407282 65.35779291 38.50795443 68.375 39.875 C69.33148438 40.32617188 70.28796875 40.77734375 71.2734375 41.2421875 C73.95994947 42.27505072 73.95994947 42.27505072 76.3515625 41.1328125 C76.89554687 40.75898437 77.43953125 40.38515625 78 40 C79 43 79 43 79 46 C80.81775051 47.66749685 80.81775051 47.66749685 83.1875 49.125 C83.96480469 49.64320313 84.74210937 50.16140625 85.54296875 50.6953125 C88.10890817 52.05783041 90.10631812 52.75683346 93 53 C93.99 52.01 93.99 52.01 95 51 C94.6875 52.9375 94.6875 52.9375 94 55 C91 56 91 56 88.50170898 54.8828125 C87.50985596 54.30273438 86.51800293 53.72265625 85.49609375 53.125 C84.37638184 52.47716553 83.25666992 51.82933105 82.10302734 51.16186523 C80.88109932 50.44138861 79.6592592 49.72076288 78.4375 49 C77.1719605 48.26341758 75.90583874 47.52783473 74.63916016 46.79321289 C72.0287597 45.27750248 69.4215826 43.75646234 66.81689453 42.23095703 C62.24287581 39.5538654 57.6496313 36.91050227 53.05566406 34.26782227 C49.86167267 32.42983075 46.670735 30.58663618 43.48046875 28.7421875 C39.00774916 26.15734392 34.53077142 23.58002762 30.05078125 21.0078125 C8.02707425 8.35318672 8.02707425 8.35318672 -2 2 C-1.34 1.34 -0.68 0.68 0 0 Z " fill="#3A1881" transform="translate(33,528)"/>
<path d="M0 0 C1.134375 0.020625 2.26875 0.04125 3.4375 0.0625 C0.9291488 2.88034037 -1.86172938 4.51973723 -5.13671875 6.36328125 C-6.26674316 7.00338135 -7.39676758 7.64348145 -8.56103516 8.30297852 C-9.16167786 8.64032013 -9.76232056 8.97766174 -10.38116455 9.32522583 C-13.57348198 11.11843474 -16.75666646 12.92775434 -19.94140625 14.734375 C-20.58793152 15.10051407 -21.23445679 15.46665314 -21.90057373 15.84388733 C-27.85883338 19.22108124 -33.77743476 22.66420937 -39.6875 26.125 C-41.11727173 26.95813721 -41.11727173 26.95813721 -42.57592773 27.80810547 C-47.3537431 30.59279786 -52.12229864 33.3916279 -56.87338257 36.22163391 C-59.26682671 37.64442643 -61.66607144 39.05724188 -64.06634521 40.46847534 C-65.77876448 41.48007106 -67.4834715 42.50468582 -69.18798828 43.52954102 C-70.2242334 44.13725342 -71.26047852 44.74496582 -72.328125 45.37109375 C-73.70145996 46.18791626 -73.70145996 46.18791626 -75.10253906 47.02124023 C-77.5625 48.0625 -77.5625 48.0625 -79.82714844 47.91821289 C-80.39981445 47.63582764 -80.97248047 47.35344238 -81.5625 47.0625 C-82.0575 45.5775 -82.0575 45.5775 -82.5625 44.0625 C-80.5 41.5625 -80.5 41.5625 -77.5625 39.0625 C-73.9375 38.75 -73.9375 38.75 -70.5625 39.0625 C-69.5725 39.0625 -68.5825 39.0625 -67.5625 39.0625 C-66.9025 39.0625 -66.2425 39.0625 -65.5625 39.0625 C-65.8925 38.0725 -66.2225 37.0825 -66.5625 36.0625 C-65.92183594 35.80855469 -65.28117187 35.55460938 -64.62109375 35.29296875 C-61.93210866 34.22298512 -59.2471241 33.14337337 -56.5625 32.0625 C-55.840625 31.77761719 -55.11875 31.49273438 -54.375 31.19921875 C-50.79755116 29.92838223 -50.79755116 29.92838223 -48.5625 27.0625 C-49.2225 26.7325 -49.8825 26.4025 -50.5625 26.0625 C-45.60156272 23.78873708 -40.88437227 22.27626034 -35.5625 21.0625 C-35.48902344 20.44375 -35.41554688 19.825 -35.33984375 19.1875 C-34.5625 17.0625 -34.5625 17.0625 -32.56640625 15.9375 C-31.76074219 15.64875 -30.95507812 15.36 -30.125 15.0625 C-26.24009628 13.66568068 -25.31790879 12.72271407 -23.5625 9.0625 C-20.3125 8.4375 -20.3125 8.4375 -16.5625 8.0625 C-13.27388905 7.2177144 -13.27388905 7.2177144 -10.5625 6.0625 C-10.2325 5.4025 -9.9025 4.7425 -9.5625 4.0625 C-7.91428756 3.03236723 -6.24746298 2.03135372 -4.5625 1.0625 C-3.5625 0.0625 -3.5625 0.0625 0 0 Z " fill="#39197E" transform="translate(314.5625,536.9375)"/>
<path d="M0 0 C0.33 0 0.66 0 1 0 C1.17898289 8.72894081 1.34428642 17.45811381 1.5 26.1875 C1.51187725 26.85294704 1.5237545 27.51839409 1.53599167 28.2040062 C1.95490689 51.90751052 2.08894763 75.60550498 2.0625 99.3125 C2.06164398 100.08537228 2.06078796 100.85824455 2.05990601 101.6545372 C2.04865117 111.1030491 2.02878186 120.55152396 2 130 C3.1614856 130.45511963 3.1614856 130.45511963 4.34643555 130.91943359 C6.96819869 131.98705009 9.35194457 133.2294611 11.8125 134.625 C12.99779297 135.29402344 12.99779297 135.29402344 14.20703125 135.9765625 C14.79871094 136.31429687 15.39039062 136.65203125 16 137 C13.17068148 137.80928705 10.68915923 138.11148599 7.75 138.0625 C5.89375 138.0315625 5.89375 138.0315625 4 138 C4.495 136.02 4.495 136.02 5 134 C4.19175781 133.47664062 3.38351563 132.95328125 2.55078125 132.4140625 C-0.72335519 129.31541576 -0.68177078 127.81979348 -0.8125 123.375 C-0.85020508 122.39853516 -0.85020508 122.39853516 -0.88867188 121.40234375 C-1.08371409 115.50649607 -1.02867444 109.59959759 -0.98168945 103.70141602 C-0.95436758 98.87987811 -1.13798421 94.12429322 -1.5 89.3125 C-2.13818679 80.81549875 -2.73966715 72.09560801 -1.51147461 63.63452148 C-0.73140462 57.55132499 -0.76552672 51.4370077 -0.68359375 45.3125 C-0.66281265 44.01425293 -0.64203156 42.71600586 -0.62062073 41.37841797 C-0.56583066 37.95250367 -0.51623439 34.52653379 -0.46777344 31.1005249 C-0.41724076 27.59431094 -0.36172174 24.08817618 -0.30664062 20.58203125 C-0.19958713 13.721423 -0.0980284 6.86074298 0 0 Z " fill="#521CC9" transform="translate(84,142)"/>
<path d="M0 0 C0.66 0.33 1.32 0.66 2 1 C2 48.52 2 96.04 2 145 C1.67 145 1.34 145 1 145 C0.82088737 135.85438518 0.65561326 126.70854261 0.5 117.5625 C0.48218412 116.51601791 0.48218412 116.51601791 0.46400833 115.44839478 C0.04289451 90.46497353 -0.08883304 65.48676031 -0.0625 40.5 C-0.06164398 39.68186451 -0.06078796 38.86372902 -0.05990601 38.02080154 C-0.04864591 28.01384375 -0.02876827 18.00692336 0 8 C-3.84058173 6.71980609 -5.3398408 7.39868035 -9 9 C-11.48535252 11.59854264 -11.48535252 11.59854264 -12 15 C-15 16 -15 16 -18 15 C-19.32 15 -20.64 15 -22 15 C-20.75880712 11.27642135 -19.71756737 10.95824835 -16.37890625 9.046875 C-15.44369141 8.510625 -14.50847656 7.974375 -13.54492188 7.421875 C-12.56072266 6.87015625 -11.57652344 6.3184375 -10.5625 5.75 C-9.58216797 5.1828125 -8.60183594 4.615625 -7.59179688 4.03125 C-2.15086256 0.94568229 -2.15086256 0.94568229 0 0 Z " fill="#4517A7" transform="translate(346,231)"/>
<path d="M0 0 C3.34252724 -0.07427838 5.8035914 -0.06546953 9 1 C11.9254644 1.2236068 11.9254644 1.2236068 14 0 C15.125 4.75 15.125 4.75 14 7 C15.43657245 7.33730842 16.87430093 7.66969591 18.3125 8 C19.11300781 8.185625 19.91351563 8.37125 20.73828125 8.5625 C23.10695938 9.09495823 23.10695938 9.09495823 26 9 C26.99 9.33 27.98 9.66 29 10 C29.33 9.34 29.66 8.68 30 8 C31.65 8 33.3 8 35 8 C35 8.66 35 9.32 35 10 C37.0995533 8.84315671 37.0995533 8.84315671 39 7 C39.33425735 4.37374861 39.33425735 4.37374861 39 2 C40.32 2 41.64 2 43 2 C43.99 1.67 44.98 1.34 46 1 C46.66 1.33 47.32 1.66 48 2 C48 1.34 48 0.68 48 0 C49.98 0 51.96 0 54 0 C54.495 0.99 54.495 0.99 55 2 C51.32673125 4.19149733 47.63433966 6.34854219 43.9375 8.5 C42.89916016 9.12003906 41.86082031 9.74007812 40.79101562 10.37890625 C39.77587891 10.96542969 38.76074219 11.55195312 37.71484375 12.15625 C36.78792725 12.70087891 35.86101074 13.24550781 34.90600586 13.80664062 C30.19847911 15.73979956 26.60008818 15.66557599 21.91040039 13.71484375 C20.89969482 13.12832031 19.88898926 12.54179688 18.84765625 11.9375 C17.74228516 11.30585937 16.63691406 10.67421875 15.49804688 10.0234375 C14.36431641 9.35570312 13.23058594 8.68796875 12.0625 8 C10.89076725 7.32414364 9.71824706 6.64965051 8.54492188 5.9765625 C5.68859032 4.33093938 2.84100891 2.67189166 0 1 C0 0.67 0 0.34 0 0 Z " fill="#331B69" transform="translate(153,600)"/>
<path d="M0 0 C2.375 0.625 2.375 0.625 6 2 C7.24104996 2.38619003 7.24104996 2.38619003 8.50717163 2.78018188 C11.75984364 4.15142796 13.65127043 5.33680005 16 8 C17.4630631 14.30610344 17.16421772 20.52254144 16.9765625 26.9609375 C16.9579003 28.83562443 16.94367084 30.7103603 16.9336853 32.58511353 C16.89558668 37.50852223 16.79743928 42.42895848 16.68664551 47.35119629 C16.5841602 52.37825302 16.53863699 57.40579243 16.48828125 62.43359375 C16.38118278 72.29036527 16.21062117 82.14493505 16 92 C14.35 91.34 12.7 90.68 11 90 C12.98 89.505 12.98 89.505 15 89 C14.85915204 87.20793453 14.71216299 85.41635083 14.5625 83.625 C14.48128906 82.62726563 14.40007812 81.62953125 14.31640625 80.6015625 C14.15034374 78.02072387 14.15034374 78.02072387 13 76 C12.91385223 74.08059532 12.89291532 72.15813025 12.90234375 70.23681641 C12.90564697 69.02861237 12.9089502 67.82040833 12.91235352 66.57559204 C12.92065186 65.26416229 12.9289502 63.95273254 12.9375 62.6015625 C12.94190479 61.24637017 12.94572166 59.89117581 12.94897461 58.53598022 C12.96235593 53.5024072 12.9865237 48.46889609 13.01037598 43.43536377 C13.03011617 39.18515752 13.04575549 34.93497457 13.05593872 30.68473434 C13.06241392 28.69057241 13.07498913 26.6964333 13.08764648 24.70230103 C13.09094971 23.48779266 13.09425293 22.2732843 13.09765625 21.02197266 C13.10289307 19.95322906 13.10812988 18.88448547 13.11352539 17.78335571 C12.96759593 14.20553415 12.12780081 11.38340243 11 8 C9.02 8 7.04 8 5 8 C4.9175 7.4225 4.835 6.845 4.75 6.25 C3.79468987 3.3840696 2.21530827 2.0009236 0 0 Z " fill="#381287" transform="translate(333,87)"/>
<path d="M0 0 C1.32 0.33 2.64 0.66 4 1 C4 1.66 4 2.32 4 3 C4.99 3.33 5.98 3.66 7 4 C7 4.99 7 5.98 7 7 C8.98 7.99 10.96 8.98 13 10 C13.33 9.34 13.66 8.68 14 8 C14 8.66 14 9.32 14 10 C17.465 9.505 17.465 9.505 21 9 C21.66 11.31 22.32 13.62 23 16 C25.42581934 16.80860645 26.84203385 17.03325603 29.375 16.5 C32.49646103 15.90543599 34.91154522 16.35357923 38 17 C37.814375 17.763125 37.62875 18.52625 37.4375 19.3125 C36.77180827 22.08967375 36.77180827 22.08967375 38 25 C37.01 25 36.02 25 35 25 C35 24.34 35 23.68 35 23 C34.40646729 22.92885986 33.81293457 22.85771973 33.20141602 22.78442383 C25.7352137 21.62466066 20.28323526 18.67182576 13.9375 14.6875 C12.07225112 13.54453348 10.2063727 12.40259364 8.33984375 11.26171875 C7.00542236 10.43873291 7.00542236 10.43873291 5.64404297 9.59912109 C1.82318919 7.28826308 -2.07472527 5.12747592 -6 3 C-6 2.67 -6 2.34 -6 2 C-4.02 2 -2.04 2 0 2 C0 1.34 0 0.68 0 0 Z " fill="#531BCA" transform="translate(34,320)"/>
<path d="M0 0 C-0.99 0 -1.98 0 -3 0 C-3.33 0.99 -3.66 1.98 -4 3 C-5.52490025 4.88797173 -6.40655974 5.87721926 -8.8125 6.375 C-12.30361874 7.3724625 -14.41180068 9.52683176 -17 12 C-17.94436349 14.16531168 -17.94436349 14.16531168 -18 16 C-19.60875 15.814375 -19.60875 15.814375 -21.25 15.625 C-22.4875 15.74875 -23.725 15.8725 -25 16 C-27.17946646 18.85251385 -27.17946646 18.85251385 -29 22 C-32.96381337 24.356862 -36.48469504 24 -41 24 C-41.99 24.66 -42.98 25.32 -44 26 C-44.33 25.01 -44.66 24.02 -45 23 C-44.36199463 22.6282666 -43.72398926 22.2565332 -43.06665039 21.87353516 C-41.15329494 20.75854217 -39.24014639 19.64319412 -37.32714844 18.52758789 C-35.14249572 17.25440523 -32.95694108 15.98276898 -30.77050781 14.71264648 C-25.74078243 11.78679312 -20.72298623 8.8493706 -15.76171875 5.80859375 C-14.60627563 5.10645752 -14.60627563 5.10645752 -13.42749023 4.39013672 C-12.00536928 3.52305591 -10.58917302 2.64616107 -9.17993164 1.75830078 C-5.6411692 -0.38725165 -3.94797523 -1.31867525 0 0 Z " fill="#561CCA" transform="translate(322,248)"/>
<path d="M0 0 C1.485 0.99 1.485 0.99 3 2 C2.67 2.33 2.34 2.66 2 3 C1.90507278 5.34253782 1.87440209 7.65546104 1.88647461 9.99829102 C1.88632858 10.72995483 1.88618256 11.46161865 1.8860321 12.2154541 C1.88673133 14.64496784 1.89452415 17.07440583 1.90234375 19.50390625 C1.9042079 21.18399514 1.90563181 22.86408457 1.90663147 24.54417419 C1.91045693 28.97473643 1.92028744 33.4052661 1.93133545 37.83581543 C1.94154897 42.35342976 1.94612896 46.87104934 1.95117188 51.38867188 C1.96190969 60.25912893 1.97898644 69.12956176 2 78 C2.66 78.33 3.32 78.66 4 79 C3.34 79.99 2.68 80.98 2 82 C4.31 83.32 6.62 84.64 9 86 C9 85.34 9 84.68 9 84 C11.64 84.33 14.28 84.66 17 85 C17.93423645 88.01031744 18.04449911 88.86650268 17 92 C10.12789653 91.0832238 4.62335006 89.39672687 0 84 C-1.57042496 77.64744605 -1.28332888 71.44467619 -1.07421875 64.94140625 C-1.05368562 63.06815671 -1.03803543 61.19484783 -1.02705383 59.32151794 C-0.98518051 54.40604693 -0.87725495 49.49418872 -0.75531006 44.58013916 C-0.64249648 39.55978271 -0.59248409 34.53883849 -0.53710938 29.51757812 C-0.41936432 19.67680351 -0.23179402 9.83870288 0 0 Z " fill="#38138A" transform="translate(14,436)"/>
<path d="M0 0 C8.09147263 1.34190264 14.5606219 5.49017668 21.5 9.625 C22.71560984 10.33945442 23.93175185 11.05300418 25.1484375 11.765625 C28.10430365 13.50160988 31.05446878 15.24655607 34 17 C33.505 18.485 33.505 18.485 33 20 C31.01432292 19.47916667 29.02864583 18.95833333 27.04296875 18.4375 C24.85929991 17.8952993 24.85929991 17.8952993 22 18 C21.67 16.02 21.34 14.04 21 12 C17.98968256 11.06576355 17.13349732 10.95550089 14 12 C13.67 10.35 13.34 8.7 13 7 C11.35 7.66 9.7 8.32 8 9 C7.67 8.34 7.34 7.68 7 7 C6.01 6.67 5.02 6.34 4 6 C4 5.01 4 4.02 4 3 C2.68 3.33 1.36 3.66 0 4 C0 2.68 0 1.36 0 0 Z M7 9 C8.485 9.99 8.485 9.99 10 11 C9.01 11.33 8.02 11.66 7 12 C7 11.01 7 10.02 7 9 Z " fill="#3A1685" transform="translate(298,68)"/>
<path d="M0 0 C0.33 0 0.66 0 1 0 C1 28.05 1 56.1 1 85 C2.32 85 3.64 85 5 85 C5 85.99 5 86.98 5 88 C6.485 87.505 6.485 87.505 8 87 C8.66 88.65 9.32 90.3 10 92 C8.375 92.6875 8.375 92.6875 6 93 C4.02 92.01 2.04 91.02 0 90 C0 60.3 0 30.6 0 0 Z " fill="#4616A7" transform="translate(14,225)"/>
<path d="M0 0 C5.81897122 2.18530767 10.97322186 5.35040662 16.3125 8.5 C17.33923828 9.09425781 18.36597656 9.68851563 19.42382812 10.30078125 C20.87885742 11.15736328 20.87885742 11.15736328 22.36328125 12.03125 C23.25313721 12.55267578 24.14299316 13.07410156 25.05981445 13.61132812 C25.70007568 14.06958984 26.34033691 14.52785156 27 15 C27 15.66 27 16.32 27 17 C29.64 18.32 32.28 19.64 35 21 C31 23 31 23 27.75 22.125 C26.8425 21.75375 25.935 21.3825 25 21 C25 19.68 25 18.36 25 17 C24.01 16.67 23.02 16.34 22 16 C21.01 15.67 20.02 15.34 19 15 C19 14.34 19 13.68 19 13 C17.68 13 16.36 13 15 13 C15 12.01 15 11.02 15 10 C14.34 10 13.68 10 13 10 C13.33 10.99 13.66 11.98 14 13 C12.68 13.33 11.36 13.66 10 14 C9.67 12.02 9.34 10.04 9 8 C8.01 7.67 7.02 7.34 6 7 C4.64631404 5.68733482 3.31200404 4.35432675 2 3 C1.34 2.67 0.68 2.34 0 2 C0 1.34 0 0.68 0 0 Z " fill="#392072" transform="translate(199,9)"/>
<path d="M0 0 C1.37562854 1.28965176 2.70766393 2.62689293 4 4 C4 4.66 4 5.32 4 6 C4.99 6 5.98 6 7 6 C7.33 5.34 7.66 4.68 8 4 C8.66 4 9.32 4 10 4 C10 3.34 10 2.68 10 2 C11.65 2 13.3 2 15 2 C14.7525 2.5775 14.505 3.155 14.25 3.75 C14.1675 4.4925 14.085 5.235 14 6 C15.85432087 8.27144074 15.85432087 8.27144074 18 10 C17.01 10.495 17.01 10.495 16 11 C17.32 12.65 18.64 14.3 20 16 C14.57698494 14.47396873 10.10792527 11.92982503 5.3125 9.0625 C4.55388672 8.61970703 3.79527344 8.17691406 3.01367188 7.72070312 C-0.37398188 5.71442274 -3.2940077 3.89228765 -6 1 C-4.7934375 1.0309375 -4.7934375 1.0309375 -3.5625 1.0625 C-1.06645115 1.29633621 -1.06645115 1.29633621 0 0 Z " fill="#451AA3" transform="translate(213,96)"/>
<path d="M0 0 C0.33 0 0.66 0 1 0 C1 22.77 1 45.54 1 69 C2.65 69.66 4.3 70.32 6 71 C7.61811373 71.84893089 9.22305956 72.72352632 10.8125 73.625 C11.99779297 74.29402344 11.99779297 74.29402344 13.20703125 74.9765625 C14.09455078 75.48316406 14.09455078 75.48316406 15 76 C12.17068148 76.80928705 9.68915923 77.11148599 6.75 77.0625 C4.89375 77.0315625 4.89375 77.0315625 3 77 C3.33 75.68 3.66 74.36 4 73 C3.02404877 72.46683418 3.02404877 72.46683418 2.02838135 71.92289734 C0 70 0 70 -0.48101807 66.98176575 C-0.4676944 65.12644478 -0.4676944 65.12644478 -0.45410156 63.23364258 C-0.45468567 62.55045456 -0.45526978 61.86726654 -0.45587158 61.16337585 C-0.45308615 58.90657629 -0.42197557 56.65109984 -0.390625 54.39453125 C-0.38316417 52.82940899 -0.37747049 51.26427739 -0.37347412 49.69914246 C-0.35820515 45.58072088 -0.31891311 41.46286404 -0.2746582 37.34466553 C-0.23373234 33.14196411 -0.21546889 28.93917139 -0.1953125 24.73632812 C-0.1524195 16.49062632 -0.0841536 8.24538342 0 0 Z " fill="#5832B2" transform="translate(85,203)"/>
<path d="M0 0 C2.10241603 -0.13496251 4.2072961 -0.23197307 6.3125 -0.3125 C7.48425781 -0.37050781 8.65601563 -0.42851563 9.86328125 -0.48828125 C13 0 13 0 14.79296875 2.39453125 C15.19128906 3.25433594 15.58960938 4.11414063 16 5 C16.66 5.66 17.32 6.32 18 7 C19.32 7 20.64 7 22 7 C22.66 7.33 23.32 7.66 24 8 C24.625 10.5625 24.625 10.5625 25 13 C18.81831102 12.59464335 14.31101003 9.60067166 9.125 6.5 C8.24585938 5.98824219 7.36671875 5.47648438 6.4609375 4.94921875 C1.76786699 2.18730303 1.76786699 2.18730303 0 1 C0 0.67 0 0.34 0 0 Z " fill="#412879" transform="translate(127,585)"/>
<path d="M0 0 C0.66 0 1.32 0 2 0 C2 27.72 2 55.44 2 84 C0.35 83.34 -1.3 82.68 -3 82 C-1.02 81.505 -1.02 81.505 1 81 C0.67 54.27 0.34 27.54 0 0 Z " fill="#32186D" transform="translate(347,95)"/>
<path d="M0 0 C2.4375 2.125 2.4375 2.125 4 4 C4.99 4 5.98 4 7 4 C7 4.99 7 5.98 7 7 C3.454339 5.96224556 0.51806968 4.74966804 -2.5625 2.75 C-5.71805428 0.65798335 -5.71805428 0.65798335 -8.1953125 1.6015625 C-11.97478447 3.4860346 -15.64709644 5.5286119 -19.3125 7.625 C-20.42334961 8.25535156 -20.42334961 8.25535156 -21.55664062 8.8984375 C-23.37269011 9.92948495 -25.18656533 10.96436046 -27 12 C-27.66 11.34 -28.32 10.68 -29 10 C-28.01 10 -27.02 10 -26 10 C-26 9.34 -26 8.68 -26 8 C-25.34 8 -24.68 8 -24 8 C-23.67 7.34 -23.34 6.68 -23 6 C-22.34 6 -21.68 6 -21 6 C-20.67 4.68 -20.34 3.36 -20 2 C-17.36 2 -14.72 2 -12 2 C-12 1.01 -12 0.02 -12 -1 C-8.2745686 -2.8627157 -3.83637763 -1.18759826 0 0 Z " fill="#441E98" transform="translate(188,83)"/>
<path d="M0 0 C1.32 0.33 2.64 0.66 4 1 C4 1.66 4 2.32 4 3 C4.99 3.33 5.98 3.66 7 4 C7 4.99 7 5.98 7 7 C8.98 7.99 10.96 8.98 13 10 C13.33 9.34 13.66 8.68 14 8 C14 9.65 14 11.3 14 13 C15.65 13.66 17.3 14.32 19 15 C18.01 15.495 18.01 15.495 17 16 C14.66162109 14.92016602 14.66162109 14.92016602 11.7734375 13.25390625 C10.7421875 12.66416016 9.7109375 12.07441406 8.6484375 11.46679688 C7.56820312 10.83837891 6.48796875 10.20996094 5.375 9.5625 C4.28703125 8.93794922 3.1990625 8.31339844 2.078125 7.66992188 C-0.61878233 6.12038301 -3.31116406 4.5634896 -6 3 C-6 2.67 -6 2.34 -6 2 C-4.02 2 -2.04 2 0 2 C0 1.34 0 0.68 0 0 Z " fill="#5222BE" transform="translate(34,320)"/>
<path d="M0 0 C1.32 0.33 2.64 0.66 4 1 C3.01 1.66 2.02 2.32 1 3 C0.52105041 5.82673424 0.52105041 5.82673424 0.56762695 9.19384766 C0.54783279 10.49504547 0.52803864 11.79624329 0.50764465 13.13687134 C0.50087433 14.56260026 0.49442752 15.98833075 0.48828125 17.4140625 C0.47144175 18.86853565 0.4532925 20.32299417 0.43388367 21.7774353 C0.38629769 25.60786369 0.35654436 29.43823284 0.33044434 33.26885986 C0.30068185 37.17675482 0.25413687 41.08444542 0.20898438 44.9921875 C0.12285365 52.66135714 0.05555229 60.33054147 0 68 C-0.33 68 -0.66 68 -1 68 C-1.01030746 67.2277005 -1.02061493 66.455401 -1.03123474 65.65969849 C-1.12910994 58.3904686 -1.23161 51.12132579 -1.33933926 43.85223579 C-1.39456319 40.11489964 -1.44798232 36.37755565 -1.49731445 32.64013672 C-1.54496587 29.03503385 -1.59730892 25.43002715 -1.65294075 21.82503891 C-1.67336079 20.44791933 -1.69207447 19.07077338 -1.70907402 17.69360733 C-1.73312547 15.768496 -1.76374251 13.84347005 -1.79467773 11.91845703 C-1.81022202 10.82147491 -1.8257663 9.7244928 -1.84178162 8.5942688 C-1.82896195 6.01546248 -1.82896195 6.01546248 -3 4 C-2.67 3.34 -2.34 2.68 -2 2 C-1.34 2 -0.68 2 0 2 C0 1.34 0 0.68 0 0 Z " fill="#4D28A4" transform="translate(86,135)"/>
<path d="M0 0 C-0.33 0.99 -0.66 1.98 -1 3 C-2.093125 3.103125 -3.18625 3.20625 -4.3125 3.3125 C-7.94512313 3.98976872 -8.86643186 4.19267351 -11 7 C-11.66 7.66 -12.32 8.32 -13 9 C-13 9.66 -13 10.32 -13 11 C-16 12 -16 12 -19 11 C-20.32 11 -21.64 11 -23 11 C-21.6399474 6.91984219 -18.98861365 5.84328164 -15.4375 3.8125 C-14.84130859 3.44447266 -14.24511719 3.07644531 -13.63085938 2.69726562 C-8.89176789 -0.04053749 -5.44760812 -0.36718685 0 0 Z " fill="#4F21B6" transform="translate(347,235)"/>
<path d="M0 0 C4.31069007 1.30271179 7.96332585 2.9675583 11.8359375 5.2578125 C12.89941406 5.88300781 13.96289062 6.50820313 15.05859375 7.15234375 C16.15300781 7.80332031 17.24742187 8.45429687 18.375 9.125 C19.49261719 9.78371094 20.61023438 10.44242188 21.76171875 11.12109375 C24.51083725 12.74236876 27.25676282 14.36880013 30 16 C26.34475772 17.21841409 26.23784337 16.61892168 23 15 C20.17901229 14.79850088 18.53869461 14.73065269 16 16 C16.33 14.35 16.66 12.7 17 11 C15.02 10.34 13.04 9.68 11 9 C11 8.34 11 7.68 11 7 C10.319375 6.731875 9.63875 6.46375 8.9375 6.1875 C5.60289191 4.83946694 2.30256763 3.42463702 -1 2 C-0.67 1.34 -0.34 0.68 0 0 Z " fill="#3C1D7D" transform="translate(226,25)"/>
<path d="M0 0 C0.66 1.32 1.32 2.64 2 4 C-0.77687356 7.24822479 -4.39061382 9.12183056 -8.0625 11.1875 C-8.69994141 11.55552734 -9.33738281 11.92355469 -9.99414062 12.30273438 C-14.74312964 15 -14.74312964 15 -17 15 C-17.33 13.02 -17.66 11.04 -18 9 C-16.5459375 9.1546875 -16.5459375 9.1546875 -15.0625 9.3125 C-10.0743211 9.32267996 -5.88351901 7.00557479 -2 4 C-0.72998082 1.93216433 -0.72998082 1.93216433 0 0 Z " fill="#371C77" transform="translate(226,585)"/>
<path d="M0 0 C0.99 0.33 1.98 0.66 3 1 C3 1.66 3 2.32 3 3 C0.69 4.32 -1.62 5.64 -4 7 C-4.33 6.67 -4.66 6.34 -5 6 C-5.66 6.66 -6.32 7.32 -7 8 C-7 8.99 -7 9.98 -7 11 C-9.6506582 11 -11.47302813 10.63174297 -14 10 C-14.99 10 -15.98 10 -17 10 C-14.03088358 6.41231766 -11.23963555 5.16995638 -6.9609375 3.73046875 C-4.77876475 2.99153216 -4.77876475 2.99153216 -2.1875 1.25 C-1.465625 0.8375 -0.74375 0.425 0 0 Z " fill="#381087" transform="translate(91,52)"/>
<path d="M0 0 C-4.02363355 3.09164355 -8.26739464 5.66175789 -12.625 8.25 C-13.40101563 8.72179687 -14.17703125 9.19359375 -14.9765625 9.6796875 C-15.7190625 10.12054687 -16.4615625 10.56140625 -17.2265625 11.015625 C-17.90283691 11.42071289 -18.57911133 11.82580078 -19.27587891 12.24316406 C-19.84483887 12.49291992 -20.41379883 12.74267578 -21 13 C-21.66 12.67 -22.32 12.34 -23 12 C-22.67 10.02 -22.34 8.04 -22 6 C-21.01 6 -20.02 6 -19 6 C-19 6.66 -19 7.32 -19 8 C-15.46107876 6.31901241 -12.18893904 4.48423917 -8.9375 2.3125 C-5.83328924 0.32246853 -3.77595818 -0.58999347 0 0 Z " fill="#391A7E" transform="translate(343,523)"/>
<path d="M0 0 C0.556875 0.226875 1.11375 0.45375 1.6875 0.6875 C0.9375 2.625 0.9375 2.625 -0.3125 4.6875 C-2.80720772 5.65319331 -4.60995539 5.6875 -7.3125 5.6875 C-9.42006824 6.99556361 -9.42006824 6.99556361 -11.5 8.6875 C-12.21542969 9.244375 -12.93085938 9.80125 -13.66796875 10.375 C-14.21066406 10.808125 -14.75335938 11.24125 -15.3125 11.6875 C-15.6425 10.3675 -15.9725 9.0475 -16.3125 7.6875 C-13.43522211 5.34305135 -10.75384875 4.03046537 -7.3125 2.6875 C-6.0440625 1.8521875 -6.0440625 1.8521875 -4.75 1 C-2.3125 -0.3125 -2.3125 -0.3125 0 0 Z " fill="#4513AF" transform="translate(261.3125,489.3125)"/>
<path d="M0 0 C4.39383706 1.59623144 8.28995807 3.78024333 12.3125 6.125 C12.95767578 6.49753906 13.60285156 6.87007813 14.26757812 7.25390625 C15.84675945 8.16632213 17.42361864 9.08275509 19 10 C17 11 17 11 14.25 10.125 C13.1775 9.75375 12.105 9.3825 11 9 C9.00630969 8.63079809 7.00720923 8.28674418 5 8 C4.67 7.01 4.34 6.02 4 5 C1.98491642 4.26676204 1.98491642 4.26676204 0 4 C0 2.68 0 1.36 0 0 Z " fill="#4A22A3" transform="translate(112,493)"/>
<path d="M0 0 C1.89957501 0.90888756 3.79450786 1.82748031 5.6875 2.75 C7.27111328 3.51570313 7.27111328 3.51570313 8.88671875 4.296875 C11.90003083 5.94531172 14.39287648 7.77499662 17 10 C12.31034294 11.11658501 9.46236469 10.80619523 5 9 C5 8.01 5 7.02 5 6 C4.34 6 3.68 6 3 6 C3 5.01 3 4.02 3 3 C2.01 2.67 1.02 2.34 0 2 C0 1.34 0 0.68 0 0 Z " fill="#6239C9" transform="translate(109,285)"/>
<path d="M0 0 C2.6875 0.875 2.6875 0.875 5 2 C5.33 1.34 5.66 0.68 6 0 C7.65 0 9.3 0 11 0 C11.33 0.99 11.66 1.98 12 3 C5.81818182 7 5.81818182 7 2.25 7 C-0.44290497 5.80315335 -1.47603573 4.48646802 -3 2 C-2.01 1.34 -1.02 0.68 0 0 Z " fill="#2B0B69" transform="translate(177,608)"/>
<path d="M0 0 C1.98 0.66 3.96 1.32 6 2 C6 2.66 6 3.32 6 4 C8.475 4.99 8.475 4.99 11 6 C10.67 6.66 10.34 7.32 10 8 C8.741875 8.04125 7.48375 8.0825 6.1875 8.125 C5.47980469 8.14820313 4.77210938 8.17140625 4.04296875 8.1953125 C2 8 2 8 -1 6 C-1.25 3.4375 -1.25 3.4375 -1 1 C-0.67 0.67 -0.34 0.34 0 0 Z " fill="#2D0C71" transform="translate(193,7)"/>
<path d="M0 0 C0.66 0.33 1.32 0.66 2 1 C1.236875 1.7425 0.47375 2.485 -0.3125 3.25 C-2.4393702 5.4263323 -4.2559956 7.52167796 -6 10 C-8.475 9.01 -8.475 9.01 -11 8 C-11.66 9.32 -12.32 10.64 -13 12 C-14.32 11.67 -15.64 11.34 -17 11 C-14.21503399 7.75258576 -10.60463249 5.83910905 -6.9375 3.75 C-6.30005859 3.37359375 -5.66261719 2.9971875 -5.00585938 2.609375 C-3.3733501 1.67356357 -1.68928489 0.82894277 0 0 Z " fill="#4A23A4" transform="translate(247,494)"/>
<path d="M0 0 C1.258125 0.12375 2.51625 0.2475 3.8125 0.375 C4.87404297 0.47941406 4.87404297 0.47941406 5.95703125 0.5859375 C8 1 8 1 11 3 C11 3.66 11 4.32 11 5 C11.66 5.33 12.32 5.66 13 6 C10.36 6.33 7.72 6.66 5 7 C4.67 6.01 4.34 5.02 4 4 C0.88214887 4.64644661 0.88214887 4.64644661 0 7 C-1.04449911 3.86650268 -0.93423645 3.01031744 0 0 Z " fill="#351180" transform="translate(249,41)"/>
<path d="M0 0 C0.99 0.66 1.98 1.32 3 2 C2.67 2.33 2.34 2.66 2 3 C3.65 3 5.3 3 7 3 C7 2.34 7 1.68 7 1 C7.66 1 8.32 1 9 1 C9 1.99 9 2.98 9 4 C8.01 4 7.02 4 6 4 C6 4.66 6 5.32 6 6 C-0.625 10 -0.625 10 -4 10 C-4 7 -4 7 -2.5 5.3125 C-2.005 4.879375 -1.51 4.44625 -1 4 C-1.33 3.34 -1.66 2.68 -2 2 C-1.34 2 -0.68 2 0 2 C0 1.34 0 0.68 0 0 Z " fill="#5718DF" transform="translate(138,343)"/>
<path d="M0 0 C1.21236328 0.66708984 1.21236328 0.66708984 2.44921875 1.34765625 C3.51785156 1.91355469 4.58648437 2.47945312 5.6875 3.0625 C6.74324219 3.63097656 7.79898438 4.19945312 8.88671875 4.78515625 C13.88666472 6.73620167 17.25392156 5.03403362 22 3 C17.20155325 7.95839497 17.20155325 7.95839497 13.1796875 8.09765625 C12.08914062 8.08605469 10.99859375 8.07445312 9.875 8.0625 C8.77929688 8.05347656 7.68359375 8.04445313 6.5546875 8.03515625 C5.29011719 8.01775391 5.29011719 8.01775391 4 8 C2.66666667 5.33333333 1.33333333 2.66666667 0 0 Z " fill="#472599" transform="translate(168,525)"/>
<path d="M0 0 C0.7734375 0.433125 0.7734375 0.433125 1.5625 0.875 C4.12937257 2.15546657 4.12937257 2.15546657 7.625 2.875 C11 4 11 4 12.4375 6.125 C12.7159375 7.053125 12.7159375 7.053125 13 8 C12.484375 7.835 11.96875 7.67 11.4375 7.5 C8.8316916 6.85872766 8.8316916 6.85872766 5.4375 7.1875 C2 7 2 7 0 5.1875 C-1 3 -1 3 0 0 Z " fill="#5B1BDE" transform="translate(138,304)"/>
<path d="M0 0 C2.10241603 -0.13496251 4.2072961 -0.23197307 6.3125 -0.3125 C7.48425781 -0.37050781 8.65601563 -0.42851563 9.86328125 -0.48828125 C13 0 13 0 14.91796875 2.51953125 C15.27503906 3.33808594 15.63210937 4.15664063 16 5 C13.46675771 6.26662115 12.42903772 5.8884533 9.6875 5.3125 C8.54861328 5.09013672 8.54861328 5.09013672 7.38671875 4.86328125 C4.3920109 3.78008905 2.38863111 2.07578385 0 0 Z " fill="#351876" transform="translate(127,585)"/>
<path d="M0 0 C-0.99 0 -1.98 0 -3 0 C-3.33 0.99 -3.66 1.98 -4 3 C-5.0625 4.625 -5.0625 4.625 -7 6 C-9.67902917 6.55592503 -12.262257 6.77559484 -15 7 C-15 7.66 -15 8.32 -15 9 C-16.65 9.66 -18.3 10.32 -20 11 C-20.33 10.34 -20.66 9.68 -21 9 C-18.26213439 7.29218266 -15.5080408 5.61250527 -12.75 3.9375 C-11.97269531 3.45216797 -11.19539063 2.96683594 -10.39453125 2.46679688 C-9.26337891 1.78520508 -9.26337891 1.78520508 -8.109375 1.08984375 C-7.07248535 0.45357056 -7.07248535 0.45357056 -6.01464844 -0.19555664 C-3.57996105 -1.16772035 -2.42444493 -0.87707861 0 0 Z " fill="#5B34B5" transform="translate(322,248)"/>
<path d="M0 0 C-0.33 0.99 -0.66 1.98 -1 3 C-1.99 3 -2.98 3 -4 3 C-4 3.66 -4 4.32 -4 5 C-4.80824219 5.39832031 -5.61648437 5.79664063 -6.44921875 6.20703125 C-7.51785156 6.73683594 -8.58648437 7.26664063 -9.6875 7.8125 C-10.74324219 8.33457031 -11.79898438 8.85664062 -12.88671875 9.39453125 C-15.98911805 10.92827713 -15.98911805 10.92827713 -18.70703125 12.76171875 C-19.46371094 13.17035156 -20.22039062 13.57898438 -21 14 C-21.99 13.67 -22.98 13.34 -24 13 C-20.3791912 10.82626954 -16.75268765 8.66222771 -13.125 6.5 C-12.09246094 5.87996094 -11.05992187 5.25992188 -9.99609375 4.62109375 C-9.00996094 4.03457031 -8.02382812 3.44804688 -7.0078125 2.84375 C-5.64100342 2.02680664 -5.64100342 2.02680664 -4.24658203 1.19335938 C-2 0 -2 0 0 0 Z " fill="#4D2D98" transform="translate(214,514)"/>
<path d="M0 0 C1.65 0 3.3 0 5 0 C5 0.99 5 1.98 5 3 C5.99 2.67 6.98 2.34 8 2 C8.66 3.65 9.32 5.3 10 7 C8.375 7.6875 8.375 7.6875 6 8 C2.75 6.5625 2.75 6.5625 0 5 C0 3.35 0 1.7 0 0 Z " fill="#4E1FB6" transform="translate(14,310)"/>
<path d="M0 0 C-3.61726977 2.20048356 -7.244974 4.38313495 -10.875 6.5625 C-12.42380859 7.50512695 -12.42380859 7.50512695 -14.00390625 8.46679688 C-14.99003906 9.05654297 -15.97617188 9.64628906 -16.9921875 10.25390625 C-17.90339355 10.80377197 -18.81459961 11.3536377 -19.75341797 11.92016602 C-20.49479004 12.27651123 -21.23616211 12.63285645 -22 13 C-22.66 12.67 -23.32 12.34 -24 12 C-18.25 8 -18.25 8 -16 8 C-16 7.34 -16 6.68 -16 6 C-15.01 6 -14.02 6 -13 6 C-12.67 5.01 -12.34 4.02 -12 3 C-10.0390625 1.796875 -10.0390625 1.796875 -7.625 0.75 C-6.83351562 0.39421875 -6.04203125 0.0384375 -5.2265625 -0.328125 C-3 -1 -3 -1 0 0 Z " fill="#683CCF" transform="translate(160,341)"/>
<path d="M0 0 C0.33 0 0.66 0 1 0 C1 1.65 1 3.3 1 5 C1.639375 5.226875 2.27875 5.45375 2.9375 5.6875 C7.13320261 7.48565826 11.03900556 9.73904021 15 12 C12.17068148 12.80928705 9.68915923 13.11148599 6.75 13.0625 C4.89375 13.0315625 4.89375 13.0315625 3 13 C3.33 11.68 3.66 10.36 4 9 C3.34 8.62875 2.68 8.2575 2 7.875 C0 6 0 6 -0.25 2.8125 C-0.1675 1.884375 -0.085 0.95625 0 0 Z " fill="#5627C4" transform="translate(85,267)"/>
<path d="M0 0 C-0.6875 2.4375 -0.6875 2.4375 -2 5 C-4.625 5.8125 -4.625 5.8125 -7 6 C-7 5.34 -7 4.68 -7 4 C-8.65 4.33 -10.3 4.66 -12 5 C-8.44416617 1.04907352 -5.38741645 -1.79580548 0 0 Z " fill="#320E7D" transform="translate(127,34)"/>
<path d="M0 0 C2.97 0.495 2.97 0.495 6 1 C6 1.66 6 2.32 6 3 C7.32 3 8.64 3 10 3 C10.33 3.66 10.66 4.32 11 5 C12.82190269 6.09712081 14.68239155 7.13091967 16.5625 8.125 C18.08037109 8.93324219 18.08037109 8.93324219 19.62890625 9.7578125 C20.41136719 10.16773438 21.19382812 10.57765625 22 11 C22 11.99 22 12.98 22 14 C18.32983577 11.86010613 14.66447688 9.71211635 11 7.5625 C9.42605469 6.64500977 9.42605469 6.64500977 7.8203125 5.70898438 C6.82773438 5.12568359 5.83515625 4.54238281 4.8125 3.94140625 C3.89082031 3.40201416 2.96914062 2.86262207 2.01953125 2.30688477 C1.35308594 1.87561279 0.68664063 1.44434082 0 1 C0 0.67 0 0.34 0 0 Z " fill="#5B34B8" transform="translate(63,342)"/>
<path d="M0 0 C1.134375 0.020625 2.26875 0.04125 3.4375 0.0625 C1.03638822 2.70134562 -1.56805028 4.42663529 -4.625 6.25 C-5.50285156 6.77980469 -6.38070313 7.30960938 -7.28515625 7.85546875 C-9.5625 9.0625 -9.5625 9.0625 -11.5625 9.0625 C-10.56467242 5.70617085 -9.94392405 4.32298472 -7 2.3125 C-5.7934375 1.69375 -5.7934375 1.69375 -4.5625 1.0625 C-3.5625 0.0625 -3.5625 0.0625 0 0 Z " fill="#3E2181" transform="translate(314.5625,536.9375)"/>
<path d="M0 0 C2.125 0.375 2.125 0.375 4 1 C4 1.66 4 2.32 4 3 C4.99 3 5.98 3 7 3 C8.5625 4.4375 8.5625 4.4375 10 6 C10.66 6.33 11.32 6.66 12 7 C12 7.66 12 8.32 12 9 C12.99 9 13.98 9 15 9 C15 9.66 15 10.32 15 11 C10.95698825 9.51481201 7.38853744 7.57122002 3.6875 5.375 C2.08455078 4.42753906 2.08455078 4.42753906 0.44921875 3.4609375 C-0.35902344 2.97882812 -1.16726562 2.49671875 -2 2 C-1.34 1.34 -0.68 0.68 0 0 Z " fill="#391B7F" transform="translate(33,528)"/>
<path d="M0 0 C4.14032846 1.54385129 7.93553053 3.51028938 11.8125 5.625 C12.40998047 5.94984375 13.00746094 6.2746875 13.62304688 6.609375 C15.08337135 7.40379151 16.54187491 8.20155376 18 9 C14.08428299 10.305239 12.96107003 9.32239848 9.3125 7.5625 C8.31863281 7.08941406 7.32476562 6.61632812 6.30078125 6.12890625 C5.54152344 5.75636719 4.78226563 5.38382812 4 5 C3.67 5.66 3.34 6.32 3 7 C0.64046906 4.64046906 0.50858587 3.22104383 0 0 Z " fill="#4C279F" transform="translate(131,504)"/>
<path d="M0 0 C4.29 2.31 8.58 4.62 13 7 C13 7.66 13 8.32 13 9 C10.625 10.0625 10.625 10.0625 8 11 C6 10 6 10 5.125 7.625 C3.85454366 4.66060186 2.58553036 3.80987125 0 2 C0 1.34 0 0.68 0 0 Z " fill="#4C24A5" transform="translate(44,453)"/>
<path d="M0 0 C1.94113934 0.92994117 3.8777951 1.8692453 5.8125 2.8125 C6.89144531 3.33457031 7.97039063 3.85664063 9.08203125 4.39453125 C11.56579702 5.76110117 13.1799378 6.87340101 15 9 C9.54520815 8.43179252 5.08940744 7.05362055 0 5 C0 3.33333333 0 1.66666667 0 0 Z " fill="#441F9C" transform="translate(19,439)"/>
<path d="M0 0 C10.15625 2.4375 10.15625 2.4375 14 5 C13.67 5.66 13.34 6.32 13 7 C13.99 7 14.98 7 16 7 C16 7.66 16 8.32 16 9 C10.0942118 7.44584521 5.02261107 4.40465533 0 1 C0 0.67 0 0.34 0 0 Z " fill="#4823A2" transform="translate(304,153)"/>
<path d="M0 0 C0.99 0.33 1.98 0.66 3 1 C0.94803718 2.37298244 -1.11404029 3.72269162 -3.1875 5.0625 C-4.0547168 5.64741211 -4.0547168 5.64741211 -4.93945312 6.24414062 C-7.81367938 8.07909863 -9.47428345 9.04562293 -12.92578125 8.74609375 C-13.61027344 8.49988281 -14.29476562 8.25367188 -15 8 C-14.67 6.35 -14.34 4.7 -14 3 C-13.34 3.66 -12.68 4.32 -12 5 C-8.09574375 4.82253381 -6.09111748 4.06074498 -2.8125 1.875 C-1.884375 1.25625 -0.95625 0.6375 0 0 Z " fill="#542EA5" transform="translate(104,125)"/>
<path d="M0 0 C4.51720311 -0.36625971 4.51720311 -0.36625971 6.8125 1.375 C8 3 8 3 8 5 C9.32 5.33 10.64 5.66 12 6 C11.34 7.32 10.68 8.64 10 10 C9.34 10 8.68 10 8 10 C7.6596875 8.824375 7.6596875 8.824375 7.3125 7.625 C5.66562962 4.33125925 4.35641647 4.20486745 1 3 C0.67 2.01 0.34 1.02 0 0 Z " fill="#4615AF" transform="translate(65,468)"/>
<path d="M0 0 C4 2 8 4 12 6 C10.203125 7.0546875 10.203125 7.0546875 8 8 C4.75 7.125 4.75 7.125 2 6 C2 4.68 2 3.36 2 2 C1.01 1.67 0.02 1.34 -1 1 C-0.67 0.67 -0.34 0.34 0 0 Z " fill="#320E7D" transform="translate(222,24)"/>
<path d="M0 0 C4.55665941 0.53607758 7.23345952 2.48897302 11 5 C13.62766389 5.96219702 13.62766389 5.96219702 16 6 C16.66 5.34 17.32 4.68 18 4 C17.6875 5.9375 17.6875 5.9375 17 8 C14 9 14 9 10.64453125 7.34765625 C9.36110983 6.59622298 8.08393866 5.83403499 6.8125 5.0625 C5.83120117 4.48338867 5.83120117 4.48338867 4.83007812 3.89257812 C3.21464684 2.93746912 1.60659475 1.96989934 0 1 C0 0.67 0 0.34 0 0 Z " fill="#3D1F78" transform="translate(110,575)"/>
<path d="M0 0 C0.886875 0.61875 1.77375 1.2375 2.6875 1.875 C5.79542382 4.01891527 5.79542382 4.01891527 8.6875 5.0625 C11.12909035 6.05233393 12.28430336 7.03920384 14 9 C14.66 9.66 15.32 10.32 16 11 C11.72903508 10.4222095 8.81164208 8.92465642 5.1875 6.625 C4.21167969 6.01914062 3.23585938 5.41328125 2.23046875 4.7890625 C1.49441406 4.19867187 0.75835937 3.60828125 0 3 C0 2.01 0 1.02 0 0 Z " fill="#371876" transform="translate(14,517)"/>
<path d="M0 0 C0.66 0.33 1.32 0.66 2 1 C1 3 1 3 -1.3125 3.875 C-4.11494763 4.82624782 -4.11494763 4.82624782 -5.9375 7.125 C-8 9 -8 9 -11.25 9.25 C-12.1575 9.1675 -13.065 9.085 -14 9 C-9.80022081 5.3421278 -5.12798061 2.20634136 0 0 Z " fill="#4A2A9C" transform="translate(228,505)"/>
<path d="M0 0 C-3.23044072 2.76894919 -6.05633394 4.46635209 -10 6 C-10.33 6.66 -10.66 7.32 -11 8 C-12.32 7.34 -13.64 6.68 -15 6 C-13.07010782 4.80017556 -11.13080772 3.61547182 -9.1875 2.4375 C-8.10855469 1.77621094 -7.02960938 1.11492187 -5.91796875 0.43359375 C-3 -1 -3 -1 0 0 Z " fill="#4C26A5" transform="translate(276,480)"/>
<path d="M0 0 C4.29 2.31 8.58 4.62 13 7 C12.01 7.33 11.02 7.66 10 8 C9.34 7.67 8.68 7.34 8 7 C7.67 8.32 7.34 9.64 7 11 C6.34 11 5.68 11 5 11 C4.67 10.01 4.34 9.02 4 8 C4.66 7.34 5.32 6.68 6 6 C5.01 5.67 4.02 5.34 3 5 C3 4.34 3 3.68 3 3 C2.01 2.67 1.02 2.34 0 2 C0 1.34 0 0.68 0 0 Z " fill="#4D26A4" transform="translate(70,468)"/>
<path d="M0 0 C6.625 0.75 6.625 0.75 10 3 C10.33 2.34 10.66 1.68 11 1 C11 2.65 11 4.3 11 6 C13.475 6.99 13.475 6.99 16 8 C15.01 8.495 15.01 8.495 14 9 C11.54961707 7.75717988 9.226675 6.47117661 6.875 5.0625 C6.21628906 4.67642578 5.55757812 4.29035156 4.87890625 3.89257812 C3.248387 2.93553422 1.62363816 1.96867185 0 1 C0 0.67 0 0.34 0 0 Z " fill="#5128B4" transform="translate(37,327)"/>
<path d="M0 0 C4.8274799 1.41292095 8.7162359 3.42974154 13 6 C12.67 6.66 12.34 7.32 12 8 C9.69 8 7.38 8 5 8 C4.9175 7.4225 4.835 6.845 4.75 6.25 C3.79468987 3.3840696 2.21530827 2.0009236 0 0 Z " fill="#402285" transform="translate(333,87)"/>
<path d="M0 0 C1.89957501 0.90888756 3.79450786 1.82748031 5.6875 2.75 C7.27111328 3.51570313 7.27111328 3.51570313 8.88671875 4.296875 C11.90003083 5.94531172 14.39287648 7.77499662 17 10 C14.42144939 9.57024157 12.27187163 9.14005508 9.9375 7.9375 C7.75862665 6.70962605 7.75862665 6.70962605 4 7 C3.566875 6.0409375 3.566875 6.0409375 3.125 5.0625 C2.17176549 2.84793921 2.17176549 2.84793921 0 2 C0 1.34 0 0.68 0 0 Z " fill="#5030A4" transform="translate(92,481)"/>
<path d="M0 0 C0.33 0.66 0.66 1.32 1 2 C-0.2065625 2.804375 -0.2065625 2.804375 -1.4375 3.625 C-5.40547638 7.44725973 -4.76076681 12.95205686 -4.95703125 18.11328125 C-4.97121094 19.06589844 -4.98539063 20.01851562 -5 21 C-5.33 21 -5.66 21 -6 21 C-6.16225719 18.24763726 -6.2809328 15.50482524 -6.375 12.75 C-6.42527344 11.97269531 -6.47554687 11.19539063 -6.52734375 10.39453125 C-6.58580565 8.11451704 -6.56911642 6.21135965 -6 4 C-2.9765625 1.453125 -2.9765625 1.453125 0 0 Z " fill="#391B7E" transform="translate(20,91)"/>
<path d="M0 0 C0.66 0.66 1.32 1.32 2 2 C1.6730244 4.61580479 1.17960932 6.64078137 0 9 C-1.32 9 -2.64 9 -4 9 C-3.38461538 3.46153846 -3.38461538 3.46153846 -1.4375 1.125 C-0.963125 0.75375 -0.48875 0.3825 0 0 Z " fill="#5616DB" transform="translate(124,352)"/>
<path d="M0 0 C-0.33 0.99 -0.66 1.98 -1 3 C-3.97 2.67 -6.94 2.34 -10 2 C-10 1.01 -10 0.02 -10 -1 C-6.06329512 -2.31223496 -3.87511856 -1.24296256 0 0 Z " fill="#5817D9" transform="translate(109,285)"/>
<path d="M0 0 C1.37562854 1.28965176 2.70766393 2.62689293 4 4 C4 4.66 4 5.32 4 6 C4.66 6 5.32 6 6 6 C6 6.66 6 7.32 6 8 C1.69235185 6.43358249 -2.06171464 4.31663844 -6 2 C-6 1.67 -6 1.34 -6 1 C-4.7934375 1.0309375 -4.7934375 1.0309375 -3.5625 1.0625 C-1.06645115 1.29633621 -1.06645115 1.29633621 0 0 Z " fill="#4F2DA4" transform="translate(213,96)"/>
<path d="M0 0 C0.66 0.33 1.32 0.66 2 1 C1.01 1.66 0.02 2.32 -1 3 C-1.33 2.34 -1.66 1.68 -2 1 C-1.34 0.67 -0.68 0.34 0 0 Z M-2 3 C-1.34 3.66 -0.68 4.32 0 5 C-1.32 5.33 -2.64 5.66 -4 6 C-4 6.66 -4 7.32 -4 8 C-5.65 8.33 -7.3 8.66 -9 9 C-9.66 8.01 -10.32 7.02 -11 6 C-8.03 5.01 -5.06 4.02 -2 3 Z " fill="#340D88" transform="translate(72,63)"/>
<path d="M0 0 C2 1 2 1 2 1 Z M-2 1 C-1.34 1.33 -0.68 1.66 0 2 C-0.33 2.66 -0.66 3.32 -1 4 C-1.66 4 -2.32 4 -3 4 C-3 4.66 -3 5.32 -3 6 C-2.34 6 -1.68 6 -1 6 C-1.33 6.66 -1.66 7.32 -2 8 C-2.9075 7.814375 -3.815 7.62875 -4.75 7.4375 C-7.68314324 7.04265379 -9.2644657 7.05308428 -12 8 C-9.20283196 4.70921407 -5.80471422 2.93694542 -2 1 Z " fill="#2C0D6E" transform="translate(169,7)"/>
<path d="M0 0 C0.99 0.33 1.98 0.66 3 1 C0.54481265 2.50537035 -1.9138452 4.00444426 -4.375 5.5 C-5.07367188 5.92925781 -5.77234375 6.35851562 -6.4921875 6.80078125 C-11.7734375 10 -11.7734375 10 -14 10 C-14 9.34 -14 8.68 -14 8 C-13.40832031 7.67386719 -12.81664062 7.34773437 -12.20703125 7.01171875 C-11.02173828 6.35623047 -11.02173828 6.35623047 -9.8125 5.6875 C-8.99136719 5.23503906 -8.17023438 4.78257812 -7.32421875 4.31640625 C-5.5547959 3.31422894 -3.82830058 2.23584821 -2.125 1.125 C-1.42375 0.75375 -0.7225 0.3825 0 0 Z " fill="#3D2077" transform="translate(284,555)"/>
<path d="M0 0 C5.9057882 1.55415479 10.97738893 4.59534467 16 8 C16 8.33 16 8.66 16 9 C14.35 9 12.7 9 11 9 C11 8.34 11 7.68 11 7 C10.319375 6.731875 9.63875 6.46375 8.9375 6.1875 C5.60289191 4.83946694 2.30256763 3.42463702 -1 2 C-0.67 1.34 -0.34 0.68 0 0 Z " fill="#452B79" transform="translate(226,25)"/>
<path d="M0 0 C-1.375 1.5 -1.375 1.5 -3 3 C-3.66 3 -4.32 3 -5 3 C-5 3.99 -5 4.98 -5 6 C-6.32 6 -7.64 6 -9 6 C-9 5.34 -9 4.68 -9 4 C-9.66 3.67 -10.32 3.34 -11 3 C-7.14243493 0.84694043 -4.44870215 -0.39253254 0 0 Z " fill="#341184" transform="translate(275,560)"/>
<path d="M0 0 C0.33 0.99 0.66 1.98 1 3 C-3.95 5.475 -3.95 5.475 -9 8 C-9 6.68 -9 5.36 -9 4 C-6.03 2.68 -3.06 1.36 0 0 Z " fill="#350F8B" transform="translate(289,550)"/>
<path d="M0 0 C1.32 0.33 2.64 0.66 4 1 C-1.94 4.465 -1.94 4.465 -8 8 C-8.33 7.01 -8.66 6.02 -9 5 C-8.67 4.34 -8.34 3.68 -8 3 C-5.35139573 2.40644386 -2.70802678 2.25790731 0 2 C0 1.34 0 0.68 0 0 Z " fill="#4D299E" transform="translate(155,95)"/>
<path d="M0 0 C0.66 1.32 1.32 2.64 2 4 C1.01 4.99 0.02 5.98 -1 7 C-1.66 6.34 -2.32 5.68 -3 5 C-3.66 5.66 -4.32 6.32 -5 7 C-5 6.34 -5 5.68 -5 5 C-5.66 4.67 -6.32 4.34 -7 4 C-2.25 1.125 -2.25 1.125 0 0 Z " fill="#340D83" transform="translate(111,41)"/>
<path d="M0 0 C0.99 0.33 1.98 0.66 3 1 C3.33 1.99 3.66 2.98 4 4 C2 7 2 7 -0.125 7.6875 C-0.74375 7.790625 -1.3625 7.89375 -2 8 C-2.125 5.125 -2.125 5.125 -2 2 C-1.34 1.34 -0.68 0.68 0 0 Z " fill="#5A17E3" transform="translate(170,326)"/>
<path d="M0 0 C1.32 0.33 2.64 0.66 4 1 C3.01 1.495 3.01 1.495 2 2 C1.34 1.34 0.68 0.68 0 0 Z M2 2 C2 5 2 5 0.6875 6.6875 C-1 8 -1 8 -4 8 C-4.33 7.01 -4.66 6.02 -5 5 C-1.375 2 -1.375 2 2 2 Z " fill="#320A7D" transform="translate(237,576)"/>
<path d="M0 0 C0.5775 0.515625 1.155 1.03125 1.75 1.5625 C-0.89738916 3.0231285 -2.14448334 3.5625 -5.25 3.5625 C-5.25 4.2225 -5.25 4.8825 -5.25 5.5625 C-6.57 5.2325 -7.89 4.9025 -9.25 4.5625 C-7.875 3.0625 -7.875 3.0625 -6.25 1.5625 C-5.59 1.5625 -4.93 1.5625 -4.25 1.5625 C-4.91 0.9025 -5.57 0.2425 -6.25 -0.4375 C-3.39943397 -1.55736523 -2.65876672 -1.69865651 0 0 Z " fill="#5618D7" transform="translate(118.25,361.4375)"/>
<path d="M0 0 C2.97 0.495 2.97 0.495 6 1 C6.33 2.98 6.66 4.96 7 7 C4 7 4 7 1.8125 5.1875 C0 3 0 3 0 0 Z " fill="#5315D1" transform="translate(89,352)"/>
<path d="M0 0 C5.31027254 1.46032495 9.46330032 3.98320986 14 7 C12.12890625 7.5859375 12.12890625 7.5859375 10 8 C7.9375 6.625 7.9375 6.625 6 5 C5.01 4.67 4.02 4.34 3 4 C3 3.34 3 2.68 3 2 C2.01 2 1.02 2 0 2 C0 1.34 0 0.68 0 0 Z " fill="#5F31CC" transform="translate(132,299)"/>
<path d="M0 0 C0.66 0.33 1.32 0.66 2 1 C1.67 3.31 1.34 5.62 1 8 C-0.98 8 -2.96 8 -5 8 C-2.25 2.25 -2.25 2.25 0 0 Z " fill="#4D13C3" transform="translate(319,248)"/>
<path d="M0 0 C3.89954249 1.1265345 6.2177573 2.08526956 9 5 C9.99 5 10.98 5 12 5 C12 5.99 12 6.98 12 8 C7.1725201 6.58707905 3.2837641 4.57025846 -1 2 C-0.67 1.34 -0.34 0.68 0 0 Z " fill="#4E2C9D" transform="translate(183,82)"/>
<path d="M0 0 C0.66 1.32 1.32 2.64 2 4 C1.38125 4.12375 0.7625 4.2475 0.125 4.375 C-2.19120832 4.87197356 -2.19120832 4.87197356 -4 7 C-4.66 6.67 -5.32 6.34 -6 6 C-6 4.35 -6 2.7 -6 1 C-4.68 1 -3.36 1 -2 1 C-1.34 0.67 -0.68 0.34 0 0 Z " fill="#2C0C71" transform="translate(198,601)"/>
<path d="M0 0 C1.37562854 1.28965176 2.70766393 2.62689293 4 4 C4 4.66 4 5.32 4 6 C4.928125 6.2165625 4.928125 6.2165625 5.875 6.4375 C8 7 8 7 10 8 C9.67 8.66 9.34 9.32 9 10 C5.04 7.69 1.08 5.38 -3 3 C-2.01 2.67 -1.02 2.34 0 2 C0 1.34 0 0.68 0 0 Z " fill="#4F2FA6" transform="translate(276,133)"/>
<path d="M0 0 C0.66 0.33 1.32 0.66 2 1 C0.71034824 2.37562854 -0.62689293 3.70766393 -2 5 C-2.66 5 -3.32 5 -4 5 C-4 5.66 -4 6.32 -4 7 C-5.65 6.67 -7.3 6.34 -9 6 C-3.30379747 1.25316456 -3.30379747 1.25316456 0 0 Z " fill="#572ABB" transform="translate(296,260)"/>
<path d="M0 0 C2.76276177 0.52268466 5.3260876 1.10869587 8 2 C8 2.66 8 3.32 8 4 C9.32 4.33 10.64 4.66 12 5 C12 5.66 12 6.32 12 7 C7.39104317 5.68315519 3.85859765 3.84801255 0 1 C0 0.67 0 0.34 0 0 Z " fill="#5130A1" transform="translate(254,124)"/>
<path d="M0 0 C1.98 0 3.96 0 6 0 C6.33 0.66 6.66 1.32 7 2 C6.34 2 5.68 2 5 2 C5 2.99 5 3.98 5 5 C3.68 5.33 2.36 5.66 1 6 C0.67 4.02 0.34 2.04 0 0 Z " fill="#301174" transform="translate(208,594)"/>
<path d="M0 0 C2.31 0.33 4.62 0.66 7 1 C4.14693203 3.32472205 1.45925163 4.7508258 -2 6 C-1.34 4.02 -0.68 2.04 0 0 Z " fill="#5F2FC6" transform="translate(126,355)"/>
<path d="M0 0 C4.30764815 1.56641751 8.06171464 3.68336156 12 6 C12 6.33 12 6.66 12 7 C9.25 7.25 9.25 7.25 6 7 C3.75 5.0625 3.75 5.0625 2 3 C1.34 2.67 0.68 2.34 0 2 C0 1.34 0 0.68 0 0 Z " fill="#3C226F" transform="translate(199,9)"/>
<path d="M0 0 C0.66 0 1.32 0 2 0 C2 0.66 2 1.32 2 2 C2.66 2 3.32 2 4 2 C4 1.34 4 0.68 4 0 C4.99 0.33 5.98 0.66 7 1 C7.33 2.32 7.66 3.64 8 5 C3.545 4.01 3.545 4.01 -1 3 C-0.67 2.01 -0.34 1.02 0 0 Z " fill="#2F0E77" transform="translate(135,586)"/>
<path d="M0 0 C0 0.66 0 1.32 0 2 C-0.94875 2.45375 -1.8975 2.9075 -2.875 3.375 C-6.00313679 4.80238254 -6.00313679 4.80238254 -8 7 C-10.125 6.625 -10.125 6.625 -12 6 C-10.37829621 4.99466333 -8.75252763 3.99588093 -7.125 3 C-5.76761719 2.1646875 -5.76761719 2.1646875 -4.3828125 1.3125 C-2 0 -2 0 0 0 Z " fill="#5335A4" transform="translate(261,487)"/>
<path d="M0 0 C0.66 0 1.32 0 2 0 C2 0.66 2 1.32 2 2 C2.66 2.33 3.32 2.66 4 3 C3.67 4.32 3.34 5.64 3 7 C2.01 7 1.02 7 0 7 C-0.38133299 5.0085944 -0.71325582 3.00720923 -1 1 C-0.67 0.67 -0.34 0.34 0 0 Z " fill="#300D77" transform="translate(209,16)"/>
<path d="M0 0 C1.98 0.66 3.96 1.32 6 2 C6 2.66 6 3.32 6 4 C6.66 4.33 7.32 4.66 8 5 C5.69 4.67 3.38 4.34 1 4 C0.67 2.68 0.34 1.36 0 0 Z " fill="#5F2DD0" transform="translate(103,363)"/>
<path d="M0 0 C1.98 0 3.96 0 6 0 C6.33 1.98 6.66 3.96 7 6 C3.535 4.02 3.535 4.02 0 2 C0 1.34 0 0.68 0 0 Z " fill="#5217CE" transform="translate(73,345)"/>
<path d="M0 0 C0.99 0.99 1.98 1.98 3 3 C-2.2734375 6.22265625 -2.2734375 6.22265625 -4 7 C-4.66 6.67 -5.32 6.34 -6 6 C-6 5.34 -6 4.68 -6 4 C-4.68 4 -3.36 4 -2 4 C-2 3.01 -2 2.02 -2 1 C-1.34 0.67 -0.68 0.34 0 0 Z " fill="#5B1AE4" transform="translate(158,336)"/>
<path d="M0 0 C2.0625 0.4375 2.0625 0.4375 4 1 C3.01 1 2.02 1 1 1 C0.67 1.99 0.34 2.98 0 4 C-1.5625 5.6875 -1.5625 5.6875 -3 7 C-3.99 6.67 -4.98 6.34 -6 6 C-4 4 -2 2 0 0 Z " fill="#5A2BBD" transform="translate(318,247)"/>
<path d="M0 0 C0.99 0 1.98 0 3 0 C3 0.66 3 1.32 3 2 C3.66 2.33 4.32 2.66 5 3 C5 3.99 5 4.98 5 6 C3.68 6 2.36 6 1 6 C0.34 4.35 -0.32 2.7 -1 1 C-0.67 0.67 -0.34 0.34 0 0 Z " fill="#351086" transform="translate(281,58)"/>
<path d="M0 0 C1.98 0 3.96 0 6 0 C6.33 0.66 6.66 1.32 7 2 C4.42786866 3.61949011 3.32330841 4.04408751 0.25 3.625 C-0.4925 3.41875 -1.235 3.2125 -2 3 C-1.34 2.67 -0.68 2.34 0 2 C0 1.34 0 0.68 0 0 Z " fill="#32166B" transform="translate(201,600)"/>
<path d="M0 0 C0.66 0.66 1.32 1.32 2 2 C1.625 4.625 1.625 4.625 1 7 C-0.32 5.68 -1.64 4.36 -3 3 C-2.01 2.01 -1.02 1.02 0 0 Z " fill="#340E80" transform="translate(110,568)"/>
<path d="M0 0 C1.32 0 2.64 0 4 0 C4 0.66 4 1.32 4 2 C5.65 2.33 7.3 2.66 9 3 C8.67 3.66 8.34 4.32 8 5 C5.36 4.34 2.72 3.68 0 3 C0 2.01 0 1.02 0 0 Z " fill="#5719DE" transform="translate(114,291)"/>
<path d="M0 0 C1.32 0.33 2.64 0.66 4 1 C3.67 2.32 3.34 3.64 3 5 C1.35 5 -0.3 5 -2 5 C-2 3 -2 3 0 1 C0 0.67 0 0.34 0 0 Z " fill="#5916E4" transform="translate(126,297)"/>
<path d="M0 0 C1.98 0 3.96 0 6 0 C2.80009492 2.74277578 -0.00499382 4.6302836 -4 6 C-4.33 5.34 -4.66 4.68 -5 4 C-4.01 4 -3.02 4 -2 4 C-2 3.34 -2 2.68 -2 2 C-1.34 2 -0.68 2 0 2 C0 1.34 0 0.68 0 0 Z " fill="#4E2C99" transform="translate(164,89)"/>
<path d="M0 0 C0.66 1.32 1.32 2.64 2 4 C-0.31 4 -2.62 4 -5 4 C-5 3.01 -5 2.02 -5 1 C-2 0 -2 0 0 0 Z M-8 3 C-7.34 3 -6.68 3 -6 3 C-6.33 3.66 -6.66 4.32 -7 5 C-7.33 4.34 -7.66 3.68 -8 3 Z " fill="#350D88" transform="translate(54,75)"/>
<path d="M0 0 C0.33 0 0.66 0 1 0 C1 3.96 1 7.92 1 12 C-1.475 11.01 -1.475 11.01 -4 10 C-2.68 9.67 -1.36 9.34 0 9 C0 6.03 0 3.06 0 0 Z " fill="#3B1E7F" transform="translate(348,167)"/>
<path d="M0 0 C4 0 4 0 6 1 C6.625 3.5625 6.625 3.5625 7 6 C4 6 4 6 1.8125 4.125 C0 2 0 2 0 0 Z " fill="#2F0E75" transform="translate(145,592)"/>
<path d="M0 0 C0.33 0.99 0.66 1.98 1 3 C0.67 3.66 0.34 4.32 0 5 C-1.65 4.67 -3.3 4.34 -5 4 C-5 3.34 -5 2.68 -5 2 C-3.35 1.34 -1.7 0.68 0 0 Z " fill="#361582" transform="translate(70,546)"/>
<path d="M0 0 C3.96 1.98 3.96 1.98 8 4 C4.29847322 4.92538169 3.36541838 5.08174162 0 4 C0 2.68 0 1.36 0 0 Z " fill="#6031BE" transform="translate(92,275)"/>
</svg>
